<svg xmlns="http://www.w3.org/2000/svg" viewBox="0 0 24.24 24"><defs><style>.cls-1{fill:none;}.cls-2{fill:#009879;}.cls-3{fill:#575756;}.cls-4{fill:#fff;}</style></defs><g id="Layer_2" data-name="Layer 2"><g id="Variations"><g id="after_taste" data-name="after taste"><rect class="cls-1" width="24" height="24"/><path class="cls-2" d="M21.3,2.85a6.64,6.64,0,0,0-9.38,0l-.3.3-.3-.3a6.63,6.63,0,0,0-9.38,9.38l.15.15.09.09a1,1,0,0,0,.66.25,1,1,0,0,0,.71-.29,1,1,0,0,0,.29-.71,1,1,0,0,0-.26-.67A.46.46,0,0,0,3.51,11l-.16-.16A4.64,4.64,0,0,1,7.19,2.94,4.85,4.85,0,0,1,10,4.37l.2.2L11.62,6l1.6-1.6A4.87,4.87,0,0,1,16,2.94a4.64,4.64,0,0,1,3.85,7.88l-8.26,8.26L7.8,15.26a1,1,0,0,0-1.71.7,1,1,0,0,0,.3.71l5.22,5.23h0l9.67-9.67A6.63,6.63,0,0,0,21.3,2.85Z"/><path class="cls-3" d="M16.23,22.41a1.65,1.65,0,0,1-1.65-1.65V19a.65.65,0,0,0-.65-.65H12.19a1.65,1.65,0,0,1-1.65-1.65V14.89a1.65,1.65,0,0,1,1.65-1.64h1.74a.65.65,0,0,0,.65-.65V10.86a1.65,1.65,0,0,1,1.65-1.65h1.83a1.65,1.65,0,0,1,1.64,1.65V12.6a.65.65,0,0,0,.65.65h1.74a1.65,1.65,0,0,1,1.65,1.64v1.83a1.65,1.65,0,0,1-1.65,1.65H20.35a.65.65,0,0,0-.65.65v1.74a1.65,1.65,0,0,1-1.64,1.65Z"/><path class="cls-4" d="M18.06,9.71a1.14,1.14,0,0,1,1.14,1.15V12.6a1.16,1.16,0,0,0,1.15,1.15h1.74a1.14,1.14,0,0,1,1.15,1.14v1.83a1.14,1.14,0,0,1-1.15,1.15H20.35A1.16,1.16,0,0,0,19.2,19v1.74a1.14,1.14,0,0,1-1.14,1.15H16.22a1.14,1.14,0,0,1-1.14-1.15V19a1.16,1.16,0,0,0-1.15-1.15H12.19A1.14,1.14,0,0,1,11,16.72V14.89a1.14,1.14,0,0,1,1.15-1.14h1.74a1.16,1.16,0,0,0,1.15-1.15V10.86a1.14,1.14,0,0,1,1.14-1.15h1.84m0-1H16.22a2.14,2.14,0,0,0-2.14,2.15V12.6a.15.15,0,0,1-.15.15H12.19A2.14,2.14,0,0,0,10,14.89v1.83a2.15,2.15,0,0,0,2.15,2.15h1.74a.15.15,0,0,1,.15.15v1.74a2.14,2.14,0,0,0,2.14,2.15h1.84a2.14,2.14,0,0,0,2.14-2.15V19a.15.15,0,0,1,.15-.15h1.74a2.15,2.15,0,0,0,2.15-2.15V14.89a2.14,2.14,0,0,0-2.15-2.14H20.35a.15.15,0,0,1-.15-.15V10.86a2.14,2.14,0,0,0-2.14-2.15Z"/></g></g></g></svg>