<svg xmlns="http://www.w3.org/2000/svg" viewBox="0 0 24 24"><defs><style>.cls-1,.cls-3{fill:none;}.cls-2{fill:#009879;}.cls-3{stroke:#575756;stroke-linecap:round;stroke-miterlimit:10;stroke-width:2px;}.cls-4{fill:#575756;}</style></defs><g id="Layer_2" data-name="Layer 2"><g id="Variations"><g id="System_managment" data-name="System managment"><rect class="cls-1" width="24" height="24"/><path class="cls-2" d="M10.77,15.85l-.87.87-1,1-1,1a.48.48,0,0,1-.68,0l-2-2.05a.48.48,0,0,1,0-.68L8,13.12A3.33,3.33,0,0,0,8.4,14a3.86,3.86,0,0,0,1.5,1.5A3.33,3.33,0,0,0,10.77,15.85Z"/><path class="cls-2" d="M18.44,8.18,15.63,11a3.33,3.33,0,0,0-.36-.87,3.86,3.86,0,0,0-1.5-1.5,3.33,3.33,0,0,0-.87-.36l2.81-2.81a.48.48,0,0,1,.68,0l2.05,2.06A.47.47,0,0,1,18.44,8.18Z"/><path class="cls-2" d="M8,13.12A3.33,3.33,0,0,0,8.4,14h-4A.47.47,0,0,1,4,13.51V10.6a.48.48,0,0,1,.48-.48h4A3.71,3.71,0,0,0,8,11a3.79,3.79,0,0,0-.15,1.07A3.67,3.67,0,0,0,8,13.12Z"/><path class="cls-2" d="M19.73,10.6v2.91a.48.48,0,0,1-.48.48h-4a4.16,4.16,0,0,0,.5-1.93A3.79,3.79,0,0,0,15.63,11a3.33,3.33,0,0,0-.36-.87h4A.49.49,0,0,1,19.73,10.6Z"/><path class="cls-2" d="M10.77,8.26a3.71,3.71,0,0,0-.87.36,3.86,3.86,0,0,0-1.5,1.5A3.71,3.71,0,0,0,8,11L5.23,8.18a.47.47,0,0,1,0-.67L7.28,5.45a.48.48,0,0,1,.68,0Z"/><path class="cls-2" d="M18.44,16.61l-2.05,2.05a.48.48,0,0,1-.68,0l-1-1-1-1-.87-.87a3.68,3.68,0,0,0,.87-.35A4.05,4.05,0,0,0,15.28,14a3.68,3.68,0,0,0,.35-.87l2.81,2.81A.48.48,0,0,1,18.44,16.61Z"/><path class="cls-2" d="M13.77,4.65v4a3.33,3.33,0,0,0-.87-.36,3.67,3.67,0,0,0-1.06-.15,3.79,3.79,0,0,0-1.07.15,3.71,3.71,0,0,0-.87.36v-4a.48.48,0,0,1,.48-.48h2.91A.48.48,0,0,1,13.77,4.65Z"/><path class="cls-2" d="M13.77,15.5v4a.49.49,0,0,1-.48.48H10.38a.49.49,0,0,1-.48-.48v-4a3.33,3.33,0,0,0,.87.36,3.79,3.79,0,0,0,1.07.15,4.16,4.16,0,0,0,1.93-.5Z"/><path class="cls-2" d="M17.85,10.12a6.15,6.15,0,0,0-.4-.95,6.31,6.31,0,0,0-2.73-2.73,6.59,6.59,0,0,0-1-.4A6.39,6.39,0,0,0,9.9,6a6.15,6.15,0,0,0-1,.4A6.31,6.31,0,0,0,6.22,9.17a6.15,6.15,0,0,0-.4.95,6.39,6.39,0,0,0,0,3.87,6.59,6.59,0,0,0,.4.95A6.31,6.31,0,0,0,9,17.67a6.15,6.15,0,0,0,1,.4,6.39,6.39,0,0,0,3.87,0,6.59,6.59,0,0,0,1-.4,6.31,6.31,0,0,0,2.73-2.73,6.59,6.59,0,0,0,.4-.95,6.39,6.39,0,0,0,0-3.87ZM13.77,15.5a4.16,4.16,0,0,1-1.93.5,3.79,3.79,0,0,1-1.07-.15,3.33,3.33,0,0,1-.87-.36A3.86,3.86,0,0,1,8.4,14,3.33,3.33,0,0,1,8,13.12a3.67,3.67,0,0,1-.15-1.06A3.79,3.79,0,0,1,8,11a3.71,3.71,0,0,1,.36-.87,3.86,3.86,0,0,1,1.5-1.5,3.71,3.71,0,0,1,.87-.36,3.79,3.79,0,0,1,1.07-.15,3.67,3.67,0,0,1,1.06.15,3.33,3.33,0,0,1,.87.36,3.86,3.86,0,0,1,1.5,1.5,3.33,3.33,0,0,1,.36.87,3.79,3.79,0,0,1,.15,1.07,4.16,4.16,0,0,1-.5,1.93A4.05,4.05,0,0,1,13.77,15.5Z"/><path class="cls-3" d="M6.58,21.17a10.39,10.39,0,0,0,5.26,1.41A10.52,10.52,0,0,0,21,6.8"/><path class="cls-3" d="M17.1,3A10.53,10.53,0,0,0,2.72,17.32"/><polygon class="cls-4" points="19.97 4.33 18.86 8.37 23.74 6.14 19.97 4.33"/><polygon class="cls-4" points="3.77 19.68 4.88 15.64 0 17.87 3.77 19.68"/></g></g></g></svg>