<svg xmlns="http://www.w3.org/2000/svg" viewBox="0 0 24.05 24.05"><defs><style>.cls-1{fill:none;}.cls-2{fill:#575756;}.cls-3{fill:#009879;}</style></defs><g id="Layer_2" data-name="Layer 2"><g id="Variations"><g id="Productivity"><rect class="cls-1" x="0.02" width="24" height="24"/><path class="cls-2" d="M21.18,9.08a9.11,9.11,0,0,0-.6-1.44,9.65,9.65,0,0,0-4.17-4.17A9.11,9.11,0,0,0,15,2.87a9.59,9.59,0,0,0-3-.46,9.47,9.47,0,0,0-2.94.46,9.22,9.22,0,0,0-1.45.6A9.65,9.65,0,0,0,3.46,7.64a9.11,9.11,0,0,0-.6,1.44A9.59,9.59,0,0,0,2.4,12,9.47,9.47,0,0,0,2.86,15a9.22,9.22,0,0,0,.6,1.45,9.65,9.65,0,0,0,4.17,4.17,9.22,9.22,0,0,0,1.45.6,9.47,9.47,0,0,0,2.94.46,9.59,9.59,0,0,0,3-.46,9.11,9.11,0,0,0,1.44-.6,9.65,9.65,0,0,0,4.17-4.17,9.22,9.22,0,0,0,.6-1.45A9.47,9.47,0,0,0,21.64,12,9.59,9.59,0,0,0,21.18,9.08ZM15,18.65l-.36.14a7.09,7.09,0,0,1-5.18,0,1.51,1.51,0,0,1-.35-.14A7.18,7.18,0,0,1,5.4,15a1.51,1.51,0,0,1-.14-.35,7.09,7.09,0,0,1,0-5.18c0-.12.09-.24.14-.36A7.2,7.2,0,0,1,9.08,5.41a1.51,1.51,0,0,1,.35-.14,7.09,7.09,0,0,1,5.18,0l.36.14a7.29,7.29,0,0,1,3.67,3.67c.05.12.1.24.14.36a7.09,7.09,0,0,1,0,5.18,1.51,1.51,0,0,1-.14.35A7.2,7.2,0,0,1,15,18.65Z"/><line class="cls-2" x1="12.02" y1="19.28" x2="12.02" y2="11.32"/><rect class="cls-2" x="11.02" y="11.32" width="2" height="7.95"/><polygon class="cls-2" points="12.05 9.35 9.61 12.28 14.5 12.28 12.05 9.35"/><path class="cls-3" d="M9.08,18.65a1.51,1.51,0,0,0,.35.14l-.35.35L7.63,20.59,6.31,21.91a1,1,0,0,1-1.41,0L2.14,19.15a1,1,0,0,1,0-1.41l3.12-3.12A1.51,1.51,0,0,0,5.4,15,7.18,7.18,0,0,0,9.08,18.65Z"/><path class="cls-3" d="M21.9,6.32,19.14,9.08l-.36.36c0-.12-.09-.24-.14-.36A7.29,7.29,0,0,0,15,5.41l-.36-.14,3.12-3.12a1,1,0,0,1,1.42,0L21.9,4.9A1,1,0,0,1,21.9,6.32Z"/><path class="cls-3" d="M5.26,9.44a7.09,7.09,0,0,0,0,5.18A1.51,1.51,0,0,0,5.4,15H1a1,1,0,0,1-1-1V10.08a1,1,0,0,1,1-1H5.4C5.35,9.2,5.3,9.32,5.26,9.44Z"/><path class="cls-3" d="M24.05,10.08V14a1,1,0,0,1-1,1H18.64a1.51,1.51,0,0,0,.14-.35,7.09,7.09,0,0,0,0-5.18c0-.12-.09-.24-.14-.36h4.41A1,1,0,0,1,24.05,10.08Z"/><path class="cls-3" d="M9.08,4.92l.35.35a1.51,1.51,0,0,0-.35.14A7.2,7.2,0,0,0,5.4,9.08c-.05.12-.1.24-.14.36L4.9,9.08,2.14,6.32a1,1,0,0,1,0-1.42L4.9,2.15a1,1,0,0,1,1.41,0L7.63,3.47Z"/><path class="cls-3" d="M21.9,19.15l-2.75,2.76a1,1,0,0,1-1.42,0l-3.12-3.12.36-.14A7.2,7.2,0,0,0,18.64,15a1.51,1.51,0,0,0,.14-.35l.35.35,1.45,1.45,1.32,1.32A1,1,0,0,1,21.9,19.15Z"/><path class="cls-3" d="M15,1V5.41l-.36-.14a7.09,7.09,0,0,0-5.18,0,1.51,1.51,0,0,0-.35.14V1a1,1,0,0,1,1-1H14A1,1,0,0,1,15,1Z"/><path class="cls-3" d="M14.61,18.79l.36-.14v4.4a1,1,0,0,1-1,1H10.08a1,1,0,0,1-1-1v-4.4a1.51,1.51,0,0,0,.35.14,7.09,7.09,0,0,0,5.18,0Z"/><path class="cls-3" d="M21.18,9.08a9.11,9.11,0,0,0-.6-1.44,9.65,9.65,0,0,0-4.17-4.17A9.11,9.11,0,0,0,15,2.87a9.59,9.59,0,0,0-3-.46,9.47,9.47,0,0,0-2.94.46,9.22,9.22,0,0,0-1.45.6A9.65,9.65,0,0,0,3.46,7.64a9.11,9.11,0,0,0-.6,1.44A9.59,9.59,0,0,0,2.4,12,9.47,9.47,0,0,0,2.86,15a9.22,9.22,0,0,0,.6,1.45,9.65,9.65,0,0,0,4.17,4.17,9.22,9.22,0,0,0,1.45.6,9.47,9.47,0,0,0,2.94.46,9.59,9.59,0,0,0,3-.46,9.11,9.11,0,0,0,1.44-.6,9.65,9.65,0,0,0,4.17-4.17,9.22,9.22,0,0,0,.6-1.45A9.47,9.47,0,0,0,21.64,12,9.59,9.59,0,0,0,21.18,9.08ZM15,18.65l-.36.14a7.09,7.09,0,0,1-5.18,0,1.51,1.51,0,0,1-.35-.14A7.18,7.18,0,0,1,5.4,15a1.51,1.51,0,0,1-.14-.35,7.09,7.09,0,0,1,0-5.18c0-.12.09-.24.14-.36A7.2,7.2,0,0,1,9.08,5.41a1.51,1.51,0,0,1,.35-.14,7.09,7.09,0,0,1,5.18,0l.36.14a7.29,7.29,0,0,1,3.67,3.67c.05.12.1.24.14.36a7.09,7.09,0,0,1,0,5.18,1.51,1.51,0,0,1-.14.35A7.2,7.2,0,0,1,15,18.65Z"/></g></g></g></svg>