<svg xmlns="http://www.w3.org/2000/svg" viewBox="0 0 65 65"><defs><style>.cls-1{fill:none;}.cls-2{fill:#009879;}.cls-3{fill:#575756;}</style></defs><g id="Layer_2" data-name="Layer 2"><g id="Variations"><g id="Event"><rect class="cls-1" width="65" height="65"/><path class="cls-2" d="M57.27,16.92H6.73a1,1,0,0,0-1,1V36a1,1,0,0,0,1,1h0a1,1,0,0,0,1-1v-17H56.27V63H7.73V46a1,1,0,0,0-1-1h0a1,1,0,0,0-1,1V64a1,1,0,0,0,1,1H57.27a1,1,0,0,0,1-1V17.92A1,1,0,0,0,57.27,16.92Z"/><rect class="cls-3" x="5.73" y="4.12" width="52.54" height="9.6" rx="1"/><rect class="cls-2" x="43.2" y="0.91" width="3.2" height="9.6" rx="0.5"/><rect class="cls-2" x="30.4" y="0.91" width="3.2" height="9.6" rx="0.5"/><rect class="cls-2" x="17.6" y="0.91" width="3.2" height="9.6" rx="0.5"/><circle class="cls-3" cx="32" cy="40.96" r="12.9"/><path class="cls-2" d="M28.88,47.59,24,42.69a1,1,0,0,1,0-1.42,1,1,0,0,1,1.41,0l3.49,3.49L38.61,35A1,1,0,0,1,40,36.45Z"/></g></g></g></svg>