<svg xmlns="http://www.w3.org/2000/svg" viewBox="0 0 65 65"><defs><style>.cls-1{fill:none;}.cls-2{fill:#009879;}.cls-3{fill:#575756;}</style></defs><g id="Layer_2" data-name="Layer 2"><g id="Variations"><g id="Drinking_Culture" data-name="Drinking Culture"><rect class="cls-1" width="65" height="65"/><path class="cls-2" d="M47.54,30.86a7.6,7.6,0,0,0-5-2.23V26.06a.58.58,0,0,0-.58-.59H19.83a.58.58,0,0,0-.58.59V36.78a11.63,11.63,0,0,0,20.81,7.14h2.08a7.65,7.65,0,0,0,5.4-13.06Zm-7-2.24v8.16a9.59,9.59,0,0,1-1.29,4.82,9.81,9.81,0,0,1-1.88,2.32,9.63,9.63,0,0,1-16.09-7.14V27.47H40.51Zm1.63,13.3h-.82a11.63,11.63,0,0,0,1.19-5.14V30.64a5.65,5.65,0,0,1-.37,11.28Z"/><circle class="cls-3" cx="52.86" cy="5.32" r="4.43"/><path class="cls-3" d="M55.15,23.9H50.69a3.56,3.56,0,0,1-3.5-4.19l1.24-6.8a2.4,2.4,0,0,1,2.36-2h4.26a2.4,2.4,0,0,1,2.36,2l1.24,6.8A3.55,3.55,0,0,1,55.15,23.9Z"/><circle class="cls-3" cx="11.12" cy="5.32" r="4.43"/><path class="cls-3" d="M13.41,23.9H9a3.56,3.56,0,0,1-3.5-4.19l1.24-6.8a2.4,2.4,0,0,1,2.36-2h4.26a2.4,2.4,0,0,1,2.36,2l1.24,6.8A3.56,3.56,0,0,1,13.41,23.9Z"/><circle class="cls-3" cx="52.8" cy="45.89" r="4.43"/><path class="cls-3" d="M55.09,64.47H50.64a3.55,3.55,0,0,1-3.5-4.19l1.23-6.8a2.41,2.41,0,0,1,2.37-2H55a2.4,2.4,0,0,1,2.36,2l1.24,6.8A3.55,3.55,0,0,1,55.09,64.47Z"/><circle class="cls-3" cx="11.12" cy="42.55" r="4.43"/><path class="cls-3" d="M13.41,61.14H9a3.57,3.57,0,0,1-3.5-4.2l1.24-6.8a2.4,2.4,0,0,1,2.36-2h4.26a2.4,2.4,0,0,1,2.36,2l1.24,6.8A3.57,3.57,0,0,1,13.41,61.14Z"/><path class="cls-2" d="M19.93,11.43a.5.5,0,0,1-.24-.93,27.26,27.26,0,0,1,25.94-.29.5.5,0,0,1-.47.89,26.24,26.24,0,0,0-25,.27A.54.54,0,0,1,19.93,11.43Z"/><path class="cls-2" d="M59.05,40.2H59a.51.51,0,0,1-.39-.59,26.59,26.59,0,0,0,.55-5.34,25.93,25.93,0,0,0-1.46-8.62.5.5,0,0,1,1-.33,27.25,27.25,0,0,1,.94,14.49A.5.5,0,0,1,59.05,40.2Z"/><path class="cls-2" d="M32.92,61.45A27.2,27.2,0,0,1,20,58.21a.5.5,0,1,1,.48-.88,26.19,26.19,0,0,0,23.33.73.5.5,0,1,1,.42.91A27,27,0,0,1,32.92,61.45Z"/><path class="cls-2" d="M8.46,37.43A.5.5,0,0,1,8,37c-.09-.9-.13-1.82-.13-2.72A27.25,27.25,0,0,1,9,26.37.5.5,0,0,1,9.61,26a.49.49,0,0,1,.33.62,26.27,26.27,0,0,0-1.11,7.6A25.53,25.53,0,0,0,9,36.88a.51.51,0,0,1-.45.55Z"/></g></g></g></svg>