<svg xmlns="http://www.w3.org/2000/svg" viewBox="0 0 65 65"><defs><style>.cls-1{fill:none;}.cls-2{fill:#009879;}.cls-3{fill:#575756;}</style></defs><g id="Layer_2" data-name="Layer 2"><g id="Variations"><g id="Coffee_Bean" data-name="Coffee Bean"><rect class="cls-1" width="65" height="65"/><path class="cls-2" d="M54.7,60.92,45.92,20.57a3.4,3.4,0,0,1,0-2.14L50.63,4.31A3.27,3.27,0,0,0,47.52,0H17.68a3.27,3.27,0,0,0-3.1,4.31l4.71,14.12a3.4,3.4,0,0,1,0,2.14l-4,18.56a1,1,0,0,0,1,1.21h0a1,1,0,0,0,1-.79l4-18.47a5.36,5.36,0,0,0,0-3.29L16.48,3.67a1.25,1.25,0,0,1,.17-1.14,1.28,1.28,0,0,1,1-.53H47.52a1.29,1.29,0,0,1,1,.53,1.25,1.25,0,0,1,.17,1.14L44,17.79A5.44,5.44,0,0,0,44,21.08l8.77,40.27a1.35,1.35,0,0,1-.27,1.14,1.33,1.33,0,0,1-1.06.51H13.79a1.33,1.33,0,0,1-1.06-.51,1.35,1.35,0,0,1-.27-1.14L15,49.56a1,1,0,0,0-1-1.22h0a1,1,0,0,0-1,.79L10.5,60.92A3.37,3.37,0,0,0,13.79,65H51.42A3.36,3.36,0,0,0,54.7,60.92Z"/><rect class="cls-3" x="16.31" y="15.6" width="32.5" height="11" rx="1.01"/><path class="cls-3" d="M37.74,45.48a5.18,5.18,0,1,1-10.36,0c0-2.86,5.18-13,5.18-13S37.74,42.62,37.74,45.48Z"/></g></g></g></svg>