<svg xmlns="http://www.w3.org/2000/svg" viewBox="0 0 65 65"><defs><style>.cls-1{fill:none;}.cls-2{fill:#575756;}.cls-3{fill:#1b8d7b;}</style></defs><g id="Layer_2" data-name="Layer 2"><g id="Variations"><g id="Encyclepedia"><rect class="cls-1" width="65" height="65"/><path class="cls-2" d="M59.37,6.44c.54,0,1.09,0,1.63,0v45A35.4,35.4,0,0,0,55.19,51a34.79,34.79,0,0,0-7.27.77,34.32,34.32,0,0,0-11.38,4.74V13.33A41.12,41.12,0,0,1,59.37,6.44m0-4a45.09,45.09,0,0,0-26.83,8.81V65a31,31,0,0,1,16.23-9.37A30.66,30.66,0,0,1,55.19,55a31.33,31.33,0,0,1,6.2.62,3.17,3.17,0,0,0,.61.07,3,3,0,0,0,3-3V5.46a3,3,0,0,0-2.78-2.93c-.88-.06-1.84-.09-2.85-.09Z"/><path class="cls-3" d="M16.31,3.69A45.3,45.3,0,0,0,5.71,2.43c-1,0-2,0-2.86.09A3,3,0,0,0,.08,5.46v17a2,2,0,0,0,2,2h0a2,2,0,0,0,2-2v-16c.54,0,1.09,0,1.63,0a41.24,41.24,0,0,1,9.66,1.15,41.11,41.11,0,0,1,13.17,5.75V56.45a34.58,34.58,0,0,0-11.39-4.73,34.05,34.05,0,0,0-7.26-.78,35.41,35.41,0,0,0-5.81.49V34.5a2,2,0,0,0-2-2h0a2,2,0,0,0-2,2V52.64a3,3,0,0,0,3,3,3.15,3.15,0,0,0,.61-.06,31.27,31.27,0,0,1,6.2-.63,30.05,30.05,0,0,1,6.42.69A31.09,31.09,0,0,1,32.54,65V11.25A45.35,45.35,0,0,0,16.31,3.69Z"/><path class="cls-3" d="M39.79,43.09a2,2,0,0,1-.88-.21A2,2,0,0,1,38,40.21L43.56,28.9a2,2,0,1,1,3.59,1.77L41.58,42A2,2,0,0,1,39.79,43.09Z"/><path class="cls-3" d="M49.33,15.34a6.36,6.36,0,1,1-2.06.34,6.44,6.44,0,0,1,2.06-.34m0-4h0a10.53,10.53,0,0,0-3.34.55,10.37,10.37,0,1,0,3.34-.55Z"/></g></g></g></svg>