<svg xmlns="http://www.w3.org/2000/svg" viewBox="0 0 65 65.01"><defs><style>.cls-1{fill:none;}.cls-2{fill:#575756;}.cls-3{fill:#1b8d7b;}</style></defs><g id="Layer_2" data-name="Layer 2"><g id="Variations"><g id="Coffee_Drinks" data-name="Coffee Drinks"><rect class="cls-1" width="65" height="65"/><path class="cls-2" d="M47.13,32H39.94V45.59a15.22,15.22,0,0,1-2.38,8.2v3.7h9.57a12.77,12.77,0,0,0,0-25.53Zm0,21.53H41.56V36h5.57a8.77,8.77,0,0,1,0,17.53Z"/><path class="cls-3" d="M36.49,12.82a6.38,6.38,0,0,1-12.76,0C23.73,9.3,30.11.06,30.11.06S36.49,9.3,36.49,12.82Z"/><path class="cls-3" d="M20.54,11.76a4.26,4.26,0,0,1-8.51,0c0-2.35,4.25-8.51,4.25-8.51S20.54,9.41,20.54,11.76Z"/><path class="cls-3" d="M42.93,26.71H6.13a1,1,0,0,0-1,1v7a2,2,0,0,0,2,2,2,2,0,0,0,2-2v-4H39.94V45.59A15.45,15.45,0,0,1,24.53,61,15.42,15.42,0,0,1,9.17,46.75v0c0-.11,0-.22,0-.33h0a2,2,0,0,0-3.95.33h0a1.82,1.82,0,0,0,0,.32.28.28,0,0,0,0,.09A19.67,19.67,0,0,0,24.3,65a19.36,19.36,0,0,0,14-5.68,18.49,18.49,0,0,0,1.61-1.83,18.87,18.87,0,0,0,2.4-4,19.29,19.29,0,0,0,1.68-7.9V27.72A1,1,0,0,0,42.93,26.71Z"/></g></g></g></svg>