<svg xmlns="http://www.w3.org/2000/svg" viewBox="0 0 65.12 65"><defs><style>.cls-1{fill:none;}.cls-2{fill:#575756;}.cls-3{fill:#009879;}</style></defs><g id="Layer_2" data-name="Layer 2"><g id="Variations"><g id="News"><rect class="cls-1" width="65" height="65"/><path class="cls-2" d="M34.11,10.64H29.63v2h5.76Zm16.48,8.25H48.48l.76,2.41h2.11ZM64.24,62.22l-1.11-3.55V63H19.82a2.64,2.64,0,0,1-1.33-.39,2.08,2.08,0,0,1-1-1l-1-3.27L2.14,12.82a.25.25,0,0,1,0-.07,1.14,1.14,0,0,1,.54-.11H18.49v-2H2.66c-1.82,0-2.93,1.24-2.44,2.78l15.41,48.8a3.34,3.34,0,0,0,.86,1.37A4.88,4.88,0,0,0,19.82,65h42C63.64,65,64.73,63.75,64.24,62.22ZM53.85,35.89a4,4,0,0,0,.4-1.82,3.91,3.91,0,0,0-1.06-2.94,3.36,3.36,0,0,0-1-.66Zm-1.65-8.4.83-.83-.59-1.88a6.07,6.07,0,0,0-2.28-.56l.8,2.54A3.32,3.32,0,0,1,52.2,27.49ZM48.86,13.42a2.88,2.88,0,0,0-.13-.31H46.16v-2.2a4.62,4.62,0,0,0-1.51-.27h-1.2v2h1.2A2.66,2.66,0,0,1,47,14l.46,1.5h2.1ZM37.52,10.64v2h2.71v-2Z"/><path class="cls-3" d="M64.1,0H17.53a1,1,0,0,0-1,1V27.5a1,1,0,0,0,1,1h0a1,1,0,0,0,1-1V2H63.12V63H18.5V37.5a1,1,0,0,0-1-1h0a1,1,0,0,0-1,1V64a1,1,0,0,0,1,1H64.1a1,1,0,0,0,1-1V1A1,1,0,0,0,64.1,0Z"/><path class="cls-2" d="M37.52,7.45v8.48l-2.13-3.29-1.28-2L32,7.45H29.63V21.3h2.71V12.8l5.48,8.5h2.41V7.45Z"/><path class="cls-2" d="M46.16,9.86h6.43V7.45H43.45V21.3h9.14V18.89H46.16V15.52h5.47V13.11H46.16Z"/><path class="cls-2" d="M40.75,24.3,38.6,33,36.07,24.3H34L31.51,33,29.38,24.3H26.56l3.69,13.86H32.5l2.56-8.41,2.55,8.41h2.26L43.58,24.3Z"/><path class="cls-2" d="M53.19,31.13a3.36,3.36,0,0,0-1-.66,6.48,6.48,0,0,0-1.61-.41l-1.63-.23a2.27,2.27,0,0,1-1.27-.55,1.31,1.31,0,0,1-.42-1c0-.95.7-1.75,2.15-1.75a5,5,0,0,1,1.6.22,3.32,3.32,0,0,1,1.24.73l.83-.83.87-.86a5.22,5.22,0,0,0-1.46-1,6.07,6.07,0,0,0-2.28-.56c-.24,0-.47,0-.74,0-3,0-4.81,1.73-4.81,4.2a3.65,3.65,0,0,0,1,2.72,4.59,4.59,0,0,0,2.68,1.15l1.67.23a2.18,2.18,0,0,1,1.24.49,1.58,1.58,0,0,1,.42,1.17c0,1.11-.86,1.71-2.46,1.71a4.49,4.49,0,0,1-3.33-1.17l-1.75,1.75a6.43,6.43,0,0,0,5,1.83c2.15,0,4-.84,4.73-2.38a4,4,0,0,0,.4-1.82A3.91,3.91,0,0,0,53.19,31.13Z"/><path class="cls-3" d="M54.6,47.55a1,1,0,0,1-1,1H28a1,1,0,1,1,0-2H53.6A1,1,0,0,1,54.6,47.55Z"/><path class="cls-3" d="M42.45,52.55a1,1,0,0,1-1,1H28a1,1,0,1,1,0-2H41.45A1,1,0,0,1,42.45,52.55Z"/></g></g></g></svg>