<svg xmlns="http://www.w3.org/2000/svg" viewBox="0 0 65 65"><defs><style>.cls-1{fill:none;}.cls-2{fill:#575756;}.cls-3{fill:#009879;}</style></defs><g id="Layer_2" data-name="Layer 2"><g id="Variations"><g id="Roasting"><rect class="cls-1" width="65" height="65"/><path class="cls-2" d="M55.7,31.82a10.06,10.06,0,0,0-7.3-2.76c-4.74,0-10.29,2.44-14.82,7-.44.44-.86.88-1.25,1.34s-.87,1-1.25,1.55c.53.39,1.06.8,1.58,1.25a20,20,0,0,1,1.26-1.56c.34-.4.7-.78,1.08-1.16,4-4,9-6.38,13.4-6.38a8.48,8.48,0,0,1,5,1.41,6.06,6.06,0,0,1,.93.76,4.83,4.83,0,0,1,.56.65c3.33,4.32,1.28,12.59-4.77,18.64a23.07,23.07,0,0,1-7.86,5.25,15,15,0,0,1-2.34.73,6.18,6.18,0,0,1-.68,1.3c-.43-.35-.85-.67-1.27-1a10.43,10.43,0,0,1-1.24.07,9.6,9.6,0,0,1-3.39-.58,32.19,32.19,0,0,1,4,2.56c.34,0,.69,0,1.05-.08s.5-.06.75-.11a16,16,0,0,0,2.16-.5h0a24.46,24.46,0,0,0,10.19-6.26C58.76,46.66,60.64,36.76,55.7,31.82Zm-27,20.27a28.66,28.66,0,0,1-1.43-3.65l-.3-.86a14.28,14.28,0,0,0-.24,5A9.14,9.14,0,0,0,28.3,55a12.57,12.57,0,0,0,3.23,2.35,6.32,6.32,0,0,1-.74-.63A7.58,7.58,0,0,1,28.71,52.09Z"/><path class="cls-2" d="M31,54.67c.49.34,1,.66,1.64,1-.07.07-.13.15-.2.23Z"/><path class="cls-2" d="M55.32,33.14a4.32,4.32,0,0,0-.48.74c-.29.54-.61,1.25-1,2A22,22,0,0,1,50.19,42c-1.85,1.87-4.48,2.77-7,3.65-1,.34-1.93.67-2.79,1a9.47,9.47,0,0,0-1.79,1c-.29-.59-.62-1.18-1-1.76a10.41,10.41,0,0,1,1.78-1c1-.44,2-.81,3.13-1.18,2.33-.8,4.73-1.63,6.25-3.16A20.41,20.41,0,0,0,52.07,35a25,25,0,0,1,1.28-2.55,5.36,5.36,0,0,1,.43-.61Z"/><path class="cls-3" d="M40.38,46.68c-.3-.59-.63-1.17-1-1.75a26.53,26.53,0,0,0-3.82-4.81c-.54-.54-1.09-1-1.65-1.52s-1.05-.86-1.59-1.24a20.22,20.22,0,0,0-11.57-4.21,10.07,10.07,0,0,0-7.3,2.76c-3.84,3.85-3.56,10.69.17,17a1,1,0,0,0,1.57.21l0,0a1,1,0,0,0,.14-1.21C12.57,47.11,11.9,42,13.82,38.72a23.84,23.84,0,0,0,2.61,1.09c2,.76,4.46,1.7,5.79,3,1.54,1.52,2.36,3.92,3.17,6.25a31.1,31.1,0,0,0,1.35,3.5A9.14,9.14,0,0,0,28.3,55a12.57,12.57,0,0,0,3.23,2.35l1.1.6.66.36a32.19,32.19,0,0,1,4,2.56l.51.4A8.28,8.28,0,0,1,32.48,63a18.51,18.51,0,0,1-10.66-4,1,1,0,0,0-1.31.08h0a1,1,0,0,0,.1,1.5A20.42,20.42,0,0,0,32.48,65a10.1,10.1,0,0,0,7.3-2.76,8.35,8.35,0,0,0,1.51-2.05h0a9.51,9.51,0,0,0,.91-2.42C43,54.5,42.33,50.53,40.38,46.68ZM39.87,58.5a6.18,6.18,0,0,1-.68,1.3c-.43-.35-.85-.67-1.27-1a39.68,39.68,0,0,0-4.33-2.62l-1-.54c-.6-.34-1.15-.66-1.64-1l0,0a7.26,7.26,0,0,1-1.17-1,6.82,6.82,0,0,1-1.05-1.57,28.66,28.66,0,0,1-1.43-3.65l-.3-.86a15.71,15.71,0,0,0-3.35-6.16C22,39.8,19.31,38.77,17.14,38c-.72-.28-1.46-.56-2-.83a8.19,8.19,0,0,1,5.66-2,18.37,18.37,0,0,1,10.32,3.76c.53.39,1.06.8,1.58,1.25s1,.89,1.5,1.38a24.34,24.34,0,0,1,3.45,4.34c.36.58.69,1.17,1,1.76C40.55,51.55,41.06,55.55,39.87,58.5Z"/><path class="cls-2" d="M22,5.8c.87,2.13,2.51,3.79,2.94,6.18a7.48,7.48,0,0,1-.27,3.68c-.84,3.16-3.35,5.69-3.37,9,0,1,.27,2.1.37,3.24a15.55,15.55,0,0,1-.05,3.41c-.49-2.32-1.39-4.15-1.87-6.51-.77-4.62,3.79-8.13,3.65-12.59C23.28,10.07,22,8,22,5.8Z"/><path class="cls-2" d="M31.31,0c.88,2.13,2.51,3.79,2.94,6.18A7.6,7.6,0,0,1,34,9.86c-.85,3.16-3.36,5.68-3.37,9,0,1,.26,2.1.37,3.24a15.45,15.45,0,0,1-.06,3.4c-.49-2.31-1.38-4.14-1.87-6.5-.77-4.62,3.79-8.13,3.65-12.59-.08-2.12-1.38-4.2-1.4-6.39Z"/><path class="cls-2" d="M41.34,1.61c.88,2.13,2.51,3.79,2.94,6.18A7.37,7.37,0,0,1,44,11.47c-.84,3.16-3.35,5.69-3.37,9,0,1,.26,2.1.37,3.24a15.45,15.45,0,0,1-.05,3.4c-.49-2.31-1.39-4.14-1.87-6.5C38.33,16,42.88,12.46,42.74,8c-.07-2.12-1.38-4.2-1.4-6.39Z"/></g></g></g></svg>