<svg xmlns="http://www.w3.org/2000/svg" viewBox="0 0 15.01 15"><defs><style>.cls-1{fill:none;}.cls-2{fill:#575756;}.cls-3{fill:#c19277;}</style></defs><g id="Layer_2" data-name="Layer 2"><g id="Variations"><g id="Layer_68" data-name="Layer 68"><rect class="cls-1" width="15" height="15"/><path class="cls-2" d="M4.93,12.21a1.83,1.83,0,1,1-3.65,0,1.42,1.42,0,0,1,.06-.42,1.71,1.71,0,0,1,.65-1H4.21s0,0,0,0a1.74,1.74,0,0,1,.63,1,.71.71,0,0,1,0,.26A.44.44,0,0,1,4.93,12.21Z"/><circle class="cls-2" cx="11.5" cy="12.22" r="1.82"/><path class="cls-2" d="M1.74,6,.16,8.46A1.1,1.1,0,0,0,0,9v1.74a1,1,0,0,0,1,1H5.91V5.49H2.61A1,1,0,0,0,1.74,6Zm3.17,4.82H1V9l.55-.88,1-1.64H4.91Z"/><path class="cls-2" d="M5.4,8.63a.5.5,0,0,1-.49.5H1.26A.38.38,0,0,1,1,9.05a.47.47,0,0,1-.24-.42.5.5,0,0,1,.5-.5H4.91A.5.5,0,0,1,5.4,8.63Z"/><path class="cls-3" d="M15,11.05a1,1,0,0,1-1,1H4.24V2.24H14a1,1,0,0,1,0,2H6.24v5.81H14A1,1,0,0,1,15,11.05Z"/></g></g></g></svg>