<svg xmlns="http://www.w3.org/2000/svg" viewBox="0 0 15 15"><defs><style>.cls-1,.cls-3{fill:none;}.cls-2{fill:#c19277;}.cls-3{stroke:#575756;stroke-linecap:round;stroke-linejoin:round;stroke-width:2px;}</style></defs><g id="Layer_2" data-name="Layer 2"><g id="Variations"><g id="Layer_67" data-name="Layer 67"><rect class="cls-1" width="15" height="15"/><path class="cls-2" d="M9.61,2.41a3.64,3.64,0,0,0,3,3,3.66,3.66,0,0,0,0,4.22,3.64,3.64,0,0,0-3,3,3.66,3.66,0,0,0-4.22,0,3.64,3.64,0,0,0-3-3A3.67,3.67,0,0,0,3.08,7.5a3.67,3.67,0,0,0-.67-2.11,3.64,3.64,0,0,0,3-3,3.67,3.67,0,0,0,2.11.67,3.67,3.67,0,0,0,2.11-.67M9.91,0a1.63,1.63,0,0,0-1.2.54,1.62,1.62,0,0,1-1.21.54A1.62,1.62,0,0,1,6.29.54,1.64,1.64,0,0,0,3.44,1.72h0A1.63,1.63,0,0,1,1.81,3.44H1.63A1.64,1.64,0,0,0,.54,6.29a1.63,1.63,0,0,1,0,2.42,1.64,1.64,0,0,0,1.09,2.85h.18a1.63,1.63,0,0,1,1.63,1.72,1.64,1.64,0,0,0,2.85,1.18,1.63,1.63,0,0,1,2.42,0,1.64,1.64,0,0,0,2.85-1.18,1.63,1.63,0,0,1,1.63-1.72h.18a1.64,1.64,0,0,0,1.09-2.85,1.63,1.63,0,0,1,0-2.42,1.64,1.64,0,0,0-1.09-2.85h-.18a1.63,1.63,0,0,1-1.63-1.72h0A1.63,1.63,0,0,0,9.91,0Z"/><polyline class="cls-3" points="4.7 7.62 6.49 9.36 10 5.94"/></g></g></g></svg>