<svg xmlns="http://www.w3.org/2000/svg" viewBox="0 0 15 11.32"><defs><style>.cls-1{fill:#c19277;}.cls-2{fill:#575756;}</style></defs><g id="Layer_2" data-name="Layer 2"><g id="Variations"><g id="Contact_us" data-name="Contact us"><path class="cls-1" d="M15,5.38a2.15,2.15,0,0,1-2.15,2.15,1.75,1.75,0,0,1-.4,0,5.39,5.39,0,0,0,0-4.22,1.75,1.75,0,0,1,.4,0A2.15,2.15,0,0,1,15,5.38Z"/><path class="cls-1" d="M3.13,5.38a4.34,4.34,0,0,0,.34,1.7A1.9,1.9,0,0,1,3,7.34a1.92,1.92,0,0,1-.48.15,1.75,1.75,0,0,1-.4,0,2.15,2.15,0,1,1,0-4.3,1.75,1.75,0,0,1,.4,0A1.92,1.92,0,0,1,3,3.42a1.9,1.9,0,0,1,.43.26A4.34,4.34,0,0,0,3.13,5.38Z"/><path class="cls-1" d="M7.51,10.76a5.38,5.38,0,1,1,5.37-5.38h-1A4.38,4.38,0,1,0,7.51,9.76Z"/><path class="cls-1" d="M12.88,5.38a5.31,5.31,0,0,1-.43,2.11,2,2,0,0,1-.91-.41,4.42,4.42,0,0,0,0-3.4A2.26,2.26,0,0,1,12,3.42a2.13,2.13,0,0,1,.49-.15A5.31,5.31,0,0,1,12.88,5.38Z"/><circle class="cls-2" cx="7.5" cy="5.38" r="2.85"/><polygon class="cls-2" points="10.36 8.23 7.5 8.23 7.5 5.38 10.36 8.23"/><rect class="cls-1" x="5.94" y="9.19" width="3.52" height="2.13" rx="0.56"/></g></g></g></svg>