<svg xmlns="http://www.w3.org/2000/svg" viewBox="0 0 14.04 14.07"><defs><style>.cls-1{fill:none;}.cls-2{fill:#c19277;}.cls-3{fill:#575756;}</style></defs><g id="Layer_2" data-name="Layer 2"><g id="Variations"><g id="Info"><rect class="cls-1" y="0.07" width="14" height="14"/><path class="cls-2" d="M7,0A7,7,0,0,0,.85,3.61,1,1,0,0,0,1.68,5H1.8a1,1,0,0,0,.84-.52,5,5,0,1,1,0,5A.91.91,0,0,0,1.79,9H1.68a1,1,0,0,0-.83,1.43A7,7,0,1,0,7,0Z"/><path class="cls-3" d="M6.22,3.38h0a.62.62,0,0,1,.62-.62h.32a.62.62,0,0,1,.62.62h0A.63.63,0,0,1,7.16,4H6.84A.63.63,0,0,1,6.22,3.38Zm0,7.2V5.68a.62.62,0,0,1,.62-.62h.29a.62.62,0,0,1,.62.62v4.9a.63.63,0,0,1-.62.63H6.86A.63.63,0,0,1,6.24,10.58Z"/></g></g></g></svg>