<svg xmlns="http://www.w3.org/2000/svg" viewBox="0 0 14 14"><defs><style>.cls-1{fill:none;}.cls-2{fill:#c19277;}.cls-3{fill:#575756;}</style></defs><g id="Layer_2" data-name="Layer 2"><g id="Variations"><g id="Info"><rect class="cls-1" width="14" height="14"/><path class="cls-2" d="M12.74,9a6.54,6.54,0,0,0,.33-3.66A6.68,6.68,0,0,0,6.85,0a6.54,6.54,0,0,0-6,3.39A1,1,0,0,0,1.7,4.86h0a1,1,0,0,0,.84-.47A4.58,4.58,0,0,1,7,2a4.69,4.69,0,0,1,3.89,3.1,4.43,4.43,0,0,1,0,3.13l-.23.59.14.61.42,1.64-1.66-.36L9,10.6l-.59.24a4.66,4.66,0,0,1-1.77.35A4.59,4.59,0,0,1,2.86,9.26,1,1,0,0,0,2,8.86H2a1,1,0,0,0-.84,1.51,6.55,6.55,0,0,0,5.4,2.82,6.78,6.78,0,0,0,2.55-.5l4.79,1Z"/><path class="cls-3" d="M6.08,8.05V7.71A.75.75,0,0,0,6,7.4a1.13,1.13,0,0,0-.25-.27L5.62,7,5.46,6.9a2.77,2.77,0,0,1-.57-.63,1.43,1.43,0,0,1-.17-.73,2,2,0,0,1,.25-1,1.86,1.86,0,0,1,.69-.7,1.77,1.77,0,0,1,1-.26,1.73,1.73,0,0,1,.94.26,2,2,0,0,1,.69.71,2.07,2.07,0,0,1,.25,1v.35H7.38V5.56a.61.61,0,0,0-.11-.35A.84.84,0,0,0,7,5a.86.86,0,0,0-.39-.09.9.9,0,0,0-.4.09.66.66,0,0,0-.38.59A.57.57,0,0,0,6,5.92a2.26,2.26,0,0,0,.38.35l.11.08.22.16A1.82,1.82,0,0,1,7,6.82a.68.68,0,0,1,.14.31,3.59,3.59,0,0,1,0,.58v.34Zm0,1.8a.73.73,0,0,1-.21-.52.66.66,0,0,1,.21-.5.73.73,0,0,1,.52-.21.69.69,0,0,1,.51.21.66.66,0,0,1,.21.5.73.73,0,0,1-.21.52.69.69,0,0,1-.51.21A.73.73,0,0,1,6.1,9.85Z"/></g></g></g></svg>