<svg xmlns="http://www.w3.org/2000/svg" viewBox="0 0 14 14"><defs><style>.cls-1{fill:none;}.cls-2{fill:#c19277;}.cls-3{fill:#575756;}</style></defs><g id="Layer_2" data-name="Layer 2"><g id="Variations"><g id="Product_Explanation" data-name="Product Explanation"><rect class="cls-1" width="14" height="14"/><path class="cls-2" d="M12,0H2.05a.71.71,0,0,0-.71.71V4.29a.7.7,0,0,0,1.4,0V1.4h8.52V12.6H2.74V9.7a.7.7,0,0,0-1.4,0v3.59a.71.71,0,0,0,.71.71H12a.71.71,0,0,0,.71-.71V.71A.71.71,0,0,0,12,0Z"/><path class="cls-3" d="M8.65,3.62H4.07a.7.7,0,1,1,0-1.4H8.65a.7.7,0,0,1,0,1.4Z"/><path class="cls-3" d="M6.55,6.08H4.07a.7.7,0,0,1,0-1.4H6.55a.7.7,0,0,1,0,1.4Z"/><ellipse class="cls-2" cx="7.93" cy="9.23" rx="2.25" ry="1.59"/><path class="cls-3" d="M6.36,12.09h0A2.54,2.54,0,0,1,3.82,9.55V7.64A.64.64,0,0,1,4.46,7H8.27a.64.64,0,0,1,.64.64V9.55A2.55,2.55,0,0,1,6.36,12.09Z"/></g></g></g></svg>