<svg xmlns="http://www.w3.org/2000/svg" viewBox="0 0 26 26"><defs><style>.cls-1{fill:none;}.cls-2{fill:#575756;}.cls-3{fill:#1b8d7b;}</style></defs><g id="Layer_2" data-name="Layer 2"><g id="Variations"><g id="Coffee_Bean" data-name="Coffee Bean"><rect class="cls-1" width="26" height="26"/><path class="cls-2" d="M11.9,18.83a5.58,5.58,0,0,1-1-1.77,3.36,3.36,0,0,1-1.21-.77,3.29,3.29,0,0,1-.61-.83h0c0-.08-.08-.16-.11-.25A5.49,5.49,0,0,1,8.72,12a5.27,5.27,0,0,0-.57-.68A5.76,5.76,0,0,0,7,10.5a9.72,9.72,0,0,0-.39,2.19h0l.1.08a9.85,9.85,0,0,1,1.84,3.66,20.73,20.73,0,0,0,.79,2.08,6.25,6.25,0,0,0,3.12.85A4.89,4.89,0,0,1,11.9,18.83ZM24.32,1.67A6.15,6.15,0,0,0,19.88,0a13.35,13.35,0,0,0-9,4.24A16.3,16.3,0,0,0,8.66,7a15.46,15.46,0,0,0-1,1.82,9.12,9.12,0,0,1,1.92.62,12.32,12.32,0,0,1,1-1.73,13.56,13.56,0,0,1,1.67-2A11.41,11.41,0,0,1,19.88,2a4.78,4.78,0,0,1,2,.41,3.24,3.24,0,0,1,1.56,1.43c1.36,2.42.09,6.67-3.13,9.89a14.17,14.17,0,0,1-2,1.67,12.85,12.85,0,0,1-1.74,1,10,10,0,0,1,.62,1.92,14.59,14.59,0,0,0,1.81-1,16.36,16.36,0,0,0,2.73-2.2C26.18,10.71,27.33,4.69,24.32,1.67Z"/><path class="cls-2" d="M10.47,15.79c.06.18.12.35.19.52h0l-.23.27L9.1,15.46h0l-.18-.16L9,15.2c.35-.4.63-.76.87-1.09C10.08,14.68,10.28,15.25,10.47,15.79Z"/><path class="cls-2" d="M23.9,3a3.57,3.57,0,0,0-.43.88l-.21.58a10,10,0,0,1-2,3.73,11.15,11.15,0,0,1-4.43,2.31c-.53.18-1.05.36-1.52.56a5.13,5.13,0,0,0-1.51.87l-.22.22A14.13,14.13,0,0,0,12,10.82a3.63,3.63,0,0,1,.39-.4,5.54,5.54,0,0,1,1.25-.86h0a18.05,18.05,0,0,1,2.48-1,9.54,9.54,0,0,0,3.66-1.83,8.31,8.31,0,0,0,1.55-3,12.28,12.28,0,0,1,.53-1.33,3.23,3.23,0,0,1,.45-.73Z"/><path class="cls-3" d="M19,17.34a11.88,11.88,0,0,0-.69-1.94,15.46,15.46,0,0,0-3-4.38l-.16-.17a15.76,15.76,0,0,0-1.45-1.29h0A14,14,0,0,0,10.6,7.67,12,12,0,0,0,8.66,7a9.94,9.94,0,0,0-2.53-.35A6.12,6.12,0,0,0,1.68,8.29C-.74,10.71-.47,15.08,2,19a1,1,0,0,0,1.54.17h0a1,1,0,0,0,.12-1.25c-1.65-2.59-2.16-5.37-1.3-7.22a3.39,3.39,0,0,1,.69-1,3.33,3.33,0,0,1,.75-.56,4.78,4.78,0,0,1,2.28-.53,7.56,7.56,0,0,1,1.54.17,9.12,9.12,0,0,1,1.92.62A12.74,12.74,0,0,1,12,10.82a14.13,14.13,0,0,1,1.53,1.29l.16.16a13.63,13.63,0,0,1,2.87,4.14,10,10,0,0,1,.62,1.92,5.46,5.46,0,0,1-.35,3.78,3.22,3.22,0,0,1-.58.79,3,3,0,0,1-.86.62,4.76,4.76,0,0,1-2.17.48,10.24,10.24,0,0,1-5.65-2,1,1,0,0,0-1.28.09l0,0a1,1,0,0,0,.15,1.51A12.26,12.26,0,0,0,13.26,26a6.16,6.16,0,0,0,4.45-1.68C19.37,22.66,19.77,20.07,19,17.34Z"/><path class="cls-3" d="M17,22.18l-1.3,1.52c-.08-.06-.15-.13-.23-.18a18.78,18.78,0,0,0-2.85-1.73,8.11,8.11,0,0,1-2.15-1.61,6,6,0,0,1-1.06-1.66,20.73,20.73,0,0,1-.79-2.08,9.85,9.85,0,0,0-1.84-3.66l-.1-.08h0a8.65,8.65,0,0,0-2.89-1.46c-.49-.18-1-.35-1.34-.54a3.37,3.37,0,0,1-.72-.44L3,8.71a3.57,3.57,0,0,0,.88.43l.58.21A13.9,13.9,0,0,1,7,10.5a5.76,5.76,0,0,1,1.12.86,5.27,5.27,0,0,1,.57.68,9,9,0,0,1,1.13,2.07c.23.57.43,1.14.62,1.68.06.18.12.35.19.52h0c.08.26.17.5.26.74a5.58,5.58,0,0,0,1,1.77,4.89,4.89,0,0,0,.59.54,11.71,11.71,0,0,0,1.1.7,19.36,19.36,0,0,1,3.28,2Z"/></g></g></g></svg>