<svg xmlns="http://www.w3.org/2000/svg" viewBox="0 0 26 26.12"><defs><style>.cls-1{fill:none;}.cls-2{fill:#575756;}.cls-3{fill:#009879;}</style></defs><g id="Layer_2" data-name="Layer 2"><g id="Variations"><g id="Satisfaction"><rect class="cls-1" y="0.12" width="26" height="26"/><path class="cls-2" d="M21.8,2.78a2.93,2.93,0,0,0-.68-.14l-.45,0H6.08a3.4,3.4,0,0,0-.45,0,1.77,1.77,0,0,0-.32,0,3.8,3.8,0,0,0-3,3.73v1a1,1,0,0,0,1,1h0a1,1,0,0,0,1-1v-1A1.81,1.81,0,0,1,5.71,4.65a1.36,1.36,0,0,1,.29,0H20.75a1.36,1.36,0,0,1,.29,0,1.81,1.81,0,0,1,1.44,1.77V20.5a1,1,0,0,1-1,1H5.28a1,1,0,0,1-1-1v-7a1,1,0,0,0-1-1h0a1,1,0,0,0-1,1V20.5a3,3,0,0,0,3,3H21.47a3,3,0,0,0,3-3V6.42A3.81,3.81,0,0,0,21.8,2.78Z"/><path class="cls-3" d="M24.5,6.37v4.08h-2V6.37A1.73,1.73,0,0,0,21,4.65a1.36,1.36,0,0,0-.29,0H6a1.36,1.36,0,0,0-.29,0A1.73,1.73,0,0,0,4.25,6.37V7.45a1,1,0,0,1-1,1h0a1,1,0,0,1-1-1V6.37A3.74,3.74,0,0,1,5.31,2.69a1.77,1.77,0,0,1,.32,0l.37,0H20.75l.37,0a2.93,2.93,0,0,1,.68.14A3.74,3.74,0,0,1,24.5,6.37Z"/><polygon class="cls-3" points="8.99 0 6.57 4.2 11.42 4.2 8.99 0"/><polygon class="cls-3" points="13.29 0 10.87 4.2 15.71 4.2 13.29 0"/><polygon class="cls-3" points="17.59 0 15.16 4.2 20.01 4.2 17.59 0"/><polygon class="cls-2" points="8.99 26.12 6.57 21.93 11.42 21.93 8.99 26.12"/><polygon class="cls-2" points="13.29 26.12 10.87 21.93 15.71 21.93 13.29 26.12"/><polygon class="cls-2" points="17.59 26.12 15.16 21.93 20.01 21.93 17.59 26.12"/><circle class="cls-3" cx="11.04" cy="13.7" r="0.86"/><circle class="cls-3" cx="16.07" cy="17.73" r="1.19"/><circle class="cls-3" cx="10.65" cy="18.05" r="0.62"/><circle class="cls-3" cx="13.74" cy="13.09" r="0.61"/><circle class="cls-3" cx="12.76" cy="16.33" r="0.61"/><circle class="cls-3" cx="16.46" cy="14.83" r="0.43"/></g></g></g></svg>