<svg xmlns="http://www.w3.org/2000/svg" viewBox="0 0 26 26"><defs><style>.cls-1{fill:none;}.cls-2{fill:#575756;}.cls-3{fill:#1b8d7b;}</style></defs><g id="Layer_2" data-name="Layer 2"><g id="Variations"><g id="Powder_Pack" data-name="Powder Pack"><rect class="cls-1" width="26" height="26"/><path class="cls-2" d="M16,9.18a.84.84,0,0,1,.84.63l.93,6.82a1.22,1.22,0,0,1,0,.26v1.76a1.5,1.5,0,0,1-1.53,1.46H10.93A1.5,1.5,0,0,1,9.4,18.65V16.89a1.78,1.78,0,0,1,0-.29l.92-6.76a.84.84,0,0,1,.85-.66H16m0-.5H11.2A1.35,1.35,0,0,0,9.86,9.74l-.92,6.79a1.47,1.47,0,0,0,0,.36v1.76a2,2,0,0,0,2,2h5.35a2,2,0,0,0,2-2V16.89a1.47,1.47,0,0,0,0-.36l-.93-6.79A1.34,1.34,0,0,0,16,8.68Z"/><path class="cls-3" d="M22.63,17.6,20.84,5.93a.57.57,0,0,0,0-.14,2.61,2.61,0,0,0-1-1.53V5.43H7.41V4.26a2.61,2.61,0,0,0-1,1.53.57.57,0,0,0,0,.14L4.58,17.6a3.81,3.81,0,0,0-.07.75V22a4,4,0,0,0,3.92,4H18.78a4,4,0,0,0,3.92-4V18.35A3.81,3.81,0,0,0,22.63,17.6ZM20.7,22a2,2,0,0,1-1.92,2H8.43a2,2,0,0,1-1.92-2V18.35a2.43,2.43,0,0,1,0-.38v-.06L8.32,6.43l0-.15A.66.66,0,0,1,9,5.74h9.31a.66.66,0,0,1,.61.54l0,.15,1.77,11.48V18a2.43,2.43,0,0,1,0,.38Z"/><path class="cls-2" d="M19.29.08H7.92a1.51,1.51,0,0,0-1.51,1.5V6.43H20.8V1.58A1.51,1.51,0,0,0,19.29.08Zm.51,5.35H7.41V1.58a.5.5,0,0,1,.51-.5H19.29a.5.5,0,0,1,.51.5Z"/><circle class="cls-3" cx="12.22" cy="12.35" r="0.9"/><circle class="cls-3" cx="15.49" cy="17.7" r="0.9"/><circle class="cls-3" cx="15.28" cy="13.92" r="1.31"/><circle class="cls-3" cx="11.93" cy="15.95" r="1.31"/></g></g></g></svg>