<svg xmlns="http://www.w3.org/2000/svg" viewBox="0 0 26 26"><defs><style>.cls-1,.cls-4{fill:none;}.cls-2{fill:#1b8d7b;}.cls-3{fill:#575756;}.cls-4{stroke:#575756;stroke-linecap:round;stroke-linejoin:round;}</style></defs><g id="Layer_2" data-name="Layer 2"><g id="Variations"><g id="Capsule"><rect class="cls-1" width="26" height="26"/><path class="cls-2" d="M20.37,8.07,17.93,21.18a1.92,1.92,0,0,1-1.16,1.44L13.7,23.87A1.89,1.89,0,0,1,13,24a1.8,1.8,0,0,1-.69-.13L9.23,22.62a1.94,1.94,0,0,1-1.16-1.44l-.58-3.1a1,1,0,0,0-1.17-.8h0a1,1,0,0,0-.79,1.16l.57,3.1a3.94,3.94,0,0,0,2.38,2.93l3.07,1.25a3.89,3.89,0,0,0,2.9,0l3.07-1.24a4,4,0,0,0,2.38-2.94L22.58,7.16A12.07,12.07,0,0,1,20.37,8.07Zm-14.74,0a12,12,0,0,1-2.2-.91l1,5.4a1,1,0,0,0,1.18.79h0a1,1,0,0,0,.79-1.16Z"/><path class="cls-3" d="M13,0C6.54,0,1.3,2,1.3,4.55c0,1,.79,1.87,2.13,2.61a12,12,0,0,0,2.2.91,24.93,24.93,0,0,0,7.37,1,24.93,24.93,0,0,0,7.37-1,12.07,12.07,0,0,0,2.21-.91c1.34-.74,2.13-1.63,2.13-2.61C24.71,2,19.47,0,13,0Zm7.8,5.79A20.84,20.84,0,0,1,13,7.09a20.84,20.84,0,0,1-7.8-1.3A3.93,3.93,0,0,1,3.31,4.55C3.51,4.11,4.76,3.3,7,2.71A23.5,23.5,0,0,1,13,2a23.5,23.5,0,0,1,6,.71c2.24.59,3.49,1.4,3.69,1.84A3.93,3.93,0,0,1,20.8,5.79Z"/><line class="cls-4" x1="16.9" y1="11.7" x2="15.6" y2="18.2"/></g></g></g></svg>