<svg xmlns="http://www.w3.org/2000/svg" viewBox="0 0 65 65.16"><defs><style>.cls-1{fill:none;}.cls-2{fill:#575756;}.cls-3{fill:#1b8d7b;}</style></defs><g id="Layer_2" data-name="Layer 2"><g id="Variations"><g id="Representative"><rect class="cls-1" y="0.16" width="65" height="65"/></g><g id="Coffee_Brew" data-name="Coffee Brew"><path class="cls-2" d="M49.65,19.24H15.35a1,1,0,0,0-1,1v4.05a1,1,0,0,0,1,1h34.3a1,1,0,0,0,1-1V20.24A1,1,0,0,0,49.65,19.24Zm-1,4.05H16.35V21.24h32.3Z"/><path class="cls-3" d="M59.39,59.72,50.32,39.33l0-7.2a3.08,3.08,0,0,0-3.07-3.08H17.76a3.07,3.07,0,0,0-3.07,3.07V39.3l-2.55,5.75a1,1,0,0,0,.52,1.32h0a1,1,0,0,0,1.3-.51l2.55-5.75.18-.38v-7.6a1.09,1.09,0,0,1,1.08-1.08H47.23a1.08,1.08,0,0,1,1.07,1.08l0,7.2v.43l.17.38,9.07,20.39,0,0v0a1.27,1.27,0,0,1-.08,1.28,1.85,1.85,0,0,1-1.58.81H9.06a1.82,1.82,0,0,1-1.57-.81,1.27,1.27,0,0,1-.08-1.28v0L9.9,55a1,1,0,0,0-.53-1.32h0a1,1,0,0,0-1.29.52L5.6,59.72a3.55,3.55,0,0,0,3.46,5H55.93A3.55,3.55,0,0,0,59.39,59.72Z"/><path class="cls-2" d="M46,0H19a3.07,3.07,0,0,0-2.82,4.27l6.42,15,0,.09a3.06,3.06,0,0,0,2.81,1.85H39.55a3.08,3.08,0,0,0,2.82-1.85l0-.09,6.41-15A3.07,3.07,0,0,0,46,0Zm1,3.48L40.53,18.54a1.06,1.06,0,0,1-1,.64H25.44a1,1,0,0,1-1-.64L18,3.48A1.06,1.06,0,0,1,19,2H46a1.06,1.06,0,0,1,1,1.48Z"/><path class="cls-2" d="M29.42,45.37a3,3,0,0,1-6.06,0c0-1.67,3-5.74,3-5.74S29.42,43.7,29.42,45.37Z"/><path class="cls-2" d="M41.51,51.42a3,3,0,0,1-6.07,0c0-1.67,3-5.74,3-5.74S41.51,49.75,41.51,51.42Z"/></g></g></g></svg>