<svg xmlns="http://www.w3.org/2000/svg" viewBox="0 0 65 65"><defs><style>.cls-1{fill:none;}.cls-2{fill:#1b8d7b;}.cls-3{fill:#575756;}</style></defs><g id="Layer_2" data-name="Layer 2"><g id="Variations"><g id="Coffee_Drinks" data-name="Coffee Drinks"><rect class="cls-1" width="65" height="65"/></g><g id="Cake_Recipie" data-name="Cake Recipie"><path class="cls-2" d="M60.67,35.76c0,.17,0,.3,0,.38v2.13H4.1l5.45-2.51H0v7.13a2,2,0,0,0,2,2H2a2,2,0,0,0,2-2V39.76H60.72v16H4v-.84a2,2,0,0,0-2-2H2a2,2,0,0,0-2,2v2.83a2,2,0,0,0,2,2h60.7a2,2,0,0,0,2-2v-22Z"/><path class="cls-3" d="M64.68,35.76c-.18-2.27-2-18.17-18.22-21.41L41.57,16.6a19.82,19.82,0,0,1,1.61,3.66l3.72-1.71c11.78,3.09,13.52,14.74,13.77,17.21,0,.17,0,.3,0,.38v2.13H4.1l5.45-2.51L23,29.55A21.54,21.54,0,0,1,21.28,28q-.69-.69-1.29-1.41L0,35.76v6.51H64.7V36S64.7,35.94,64.68,35.76Z"/><path class="cls-3" d="M43.18,20.26a19.82,19.82,0,0,0-1.61-3.66,23.93,23.93,0,0,0-3.83-5c-4.08-4.1-9.1-6.31-13.41-6.31a9.28,9.28,0,0,0-6.71,2.53C13.39,12,14.51,20.12,20,26.55q.6.72,1.29,1.41A21.54,21.54,0,0,0,23,29.55a19,19,0,0,0,11.67,4.72,9.29,9.29,0,0,0,6.71-2.53C44.12,29,44.63,24.71,43.18,20.26Zm-18.85-11c3.38,0,7.43,2,10.57,5.13a19.44,19.44,0,0,1,3,3.88A15.52,15.52,0,0,1,39.51,22a9.74,9.74,0,0,1,.3,4.44c-.74-1.11-1.58-2.3-2.5-3.42a23.69,23.69,0,0,0-2.92-3.06,7.91,7.91,0,0,0-4.23-2.09c-2.94-.24-4.78-.74-7.89-8.24A6.89,6.89,0,0,1,24.33,9.28Zm10.36,21a14.1,14.1,0,0,1-7.53-2.62,20.53,20.53,0,0,1-3.05-2.51l-.33-.34a17.32,17.32,0,0,1-4.56-8.41,8.53,8.53,0,0,1,.06-3.65c2.92,6.49,5.59,8.68,10.57,9.07l.3.06a9.5,9.5,0,0,1,3.38,2.84,43.41,43.41,0,0,1,3.7,5.08A6.42,6.42,0,0,1,34.69,30.27Z"/></g></g></g></svg>