<svg xmlns="http://www.w3.org/2000/svg" viewBox="0 0 65 65"><defs><style>.cls-1{fill:none;}.cls-2{fill:#1b8d7b;}.cls-3{fill:#575756;}.cls-4{fill:#fff;}</style></defs><g id="Layer_2" data-name="Layer 2"><g id="Variations"><g id="Coffee_Drinks" data-name="Coffee Drinks"><rect class="cls-1" width="65" height="65"/><path class="cls-2" d="M56,8.34a17.25,17.25,0,0,0-24.53-.12L30.68,9l-.78-.78A17.26,17.26,0,0,0,5.49,32.63L7.7,34.85a2,2,0,0,0,2.83,0h0a2,2,0,0,0,0-2.82L8.32,29.8A13.26,13.26,0,1,1,27.07,11.05l.79.78,2.83,2.83,2.82-2.83.79-.78A13.26,13.26,0,1,1,53.05,29.8L30.68,52.17,19,40.51a2,2,0,0,0-2.83,0h0a2,2,0,0,0,0,2.82L30.66,57.81l0,0,0,0L55.56,32.94C62.31,26.2,62.68,15.15,56,8.34Z"/><path class="cls-3" d="M42.67,59.83a5,5,0,0,1-5-5V50.31a1,1,0,0,0-1-1H32.16a5,5,0,0,1-5-5V39.57a5,5,0,0,1,5-5h4.53a1,1,0,0,0,1-1V29.06a5,5,0,0,1,5-5h4.76a5,5,0,0,1,5,5v4.53a1,1,0,0,0,1,1H58a5,5,0,0,1,5,5v4.76a5,5,0,0,1-5,5H53.41a1,1,0,0,0-1,1v4.54a5,5,0,0,1-5,5Z"/><path class="cls-4" d="M47.43,26.07a3,3,0,0,1,3,3v4.53a3,3,0,0,0,3,3H58a3,3,0,0,1,3,3v4.76a3,3,0,0,1-3,3H53.41a3,3,0,0,0-3,3v4.54a3,3,0,0,1-3,3H42.67a3,3,0,0,1-3-3V50.31a3,3,0,0,0-3-3H32.16a3,3,0,0,1-3-3V39.57a3,3,0,0,1,3-3h4.53a3,3,0,0,0,3-3V29.06a3,3,0,0,1,3-3h4.76m0-4H42.67a7,7,0,0,0-7,7v3.52H32.16a7,7,0,0,0-7,7v4.76a7,7,0,0,0,7,7h3.52v3.53a7,7,0,0,0,7,7h4.76a7,7,0,0,0,7-7V51.32H58a7,7,0,0,0,7-7V39.57a7,7,0,0,0-7-7H54.42V29.06a7,7,0,0,0-7-7Z"/></g></g></g></svg>