<svg xmlns="http://www.w3.org/2000/svg" viewBox="0 0 26 26"><defs><style>.cls-1{fill:none;}.cls-2{fill:#575756;}.cls-3{fill:#009879;}</style></defs><g id="Layer_2" data-name="Layer 2"><g id="Variations"><g id="Multi_Origin" data-name="Multi Origin"><rect class="cls-1" width="26" height="26"/><path class="cls-2" d="M23.52,9.94a5.54,5.54,0,0,0-4-1.52,11.43,11.43,0,0,0-6.94,2.75,11.42,11.42,0,0,0-1.23,1.09,2.37,2.37,0,0,0-.27.28,14.94,14.94,0,0,1,1.3,1.14l.2.21a1.68,1.68,0,0,1,.18-.21A12.48,12.48,0,0,1,14,12.54a9.36,9.36,0,0,1,5.46-2.12,4.09,4.09,0,0,1,1.68.32,2.7,2.7,0,0,1,1.55,1.51c1,2.16-.19,5.75-2.92,8.49a12.67,12.67,0,0,1-2.6,2,8.91,8.91,0,0,1-2.7,1.09,5.84,5.84,0,0,1-.8.14A5.27,5.27,0,0,1,13,24l-.47,0-.49,0a8.48,8.48,0,0,1-4.19-1.26A4.86,4.86,0,0,0,9,24.48,5.41,5.41,0,0,0,12.55,26L13,26a12.14,12.14,0,0,0,8.18-3.85C25.21,18.14,26.25,12.67,23.52,9.94ZM11,23.52l-.06,0,.05.05ZM9.46,20.84a7.16,7.16,0,0,1,.53-3c-.12-.35-.26-.71-.39-1.09s-.35-1-.55-1.52a11.6,11.6,0,0,0-1.17,2.65,8.44,8.44,0,0,0,1.53,2.95Z"/><path class="cls-2" d="M11,23.48l.06,0h0Z"/><path class="cls-2" d="M12.85,20.9a16.06,16.06,0,0,1-1.1,1.67l-.22-.14a13.51,13.51,0,0,1-1.41-1,19.43,19.43,0,0,0,1.08-1.68s0,0,0,0a11.31,11.31,0,0,0,1.41,1Z"/><path class="cls-2" d="M23.21,11.16a5.61,5.61,0,0,0-.49,1.09c0,.07,0,.14-.07.21a9.17,9.17,0,0,1-1.84,3.42,9.44,9.44,0,0,1-3.61,2l-.45.15c-.5.17-1,.34-1.42.52a12.38,12.38,0,0,0-.75-1.85c.49-.21,1-.39,1.52-.56l.36-.12a7.92,7.92,0,0,0,2.92-1.52,7.24,7.24,0,0,0,1.39-2.69c.14-.38.26-.73.4-1a4.64,4.64,0,0,1,.5-.86Z"/><path class="cls-3" d="M17.2,17.85A11.08,11.08,0,0,0,16.46,16,13.83,13.83,0,0,0,14,12.54l-.27-.28a15.26,15.26,0,0,0-1.21-1.09,11.53,11.53,0,0,0-7-2.75,5.54,5.54,0,0,0-4,1.52c-2.2,2.2-2,6.16.32,9.72a.94.94,0,0,0,1.46.16l.08-.08a1,1,0,0,0,.11-1.19C2.1,16.3,1.63,13.89,2.33,12.28A3.12,3.12,0,0,1,3,11.35a3.09,3.09,0,0,1,.91-.61,4.43,4.43,0,0,1,1.71-.32,9.36,9.36,0,0,1,5.47,2.12,14.94,14.94,0,0,1,1.3,1.14l.2.21a12.73,12.73,0,0,1,2,2.78,12.38,12.38,0,0,1,.75,1.85,5.09,5.09,0,0,1-.23,4,3.29,3.29,0,0,1-.43.54,3,3,0,0,1-1.19.72,3.58,3.58,0,0,1-.93.19l-.49,0a8.48,8.48,0,0,1-4.19-1.26c-.15-.08-.29-.18-.44-.27a1,1,0,0,0-1.2.11l-.08.08a1,1,0,0,0,.17,1.47A10.77,10.77,0,0,0,12.06,26l.49,0a5.37,5.37,0,0,0,3.53-1.5,4.9,4.9,0,0,0,1.12-1.75A7.6,7.6,0,0,0,17.2,17.85Z"/><path class="cls-3" d="M15.4,22.77l-.9,1.05-.4.47L13.7,24l-.22-.18c-.65-.51-1.22-.88-1.73-1.21l-.22-.14a13.51,13.51,0,0,1-1.41-1,5.36,5.36,0,0,1-.66-.61l-.05-.05a8.44,8.44,0,0,1-1.53-2.95c0-.16-.12-.32-.17-.48a8.85,8.85,0,0,0-1.63-3.28,7.85,7.85,0,0,0-2.7-1.39c-.38-.14-.74-.27-1-.41a3.57,3.57,0,0,1-.84-.49l1.28-1.54a5.19,5.19,0,0,0,1.1.49l.2.07a9.16,9.16,0,0,1,3.41,1.85,7.8,7.8,0,0,1,1.57,2.53c.2.51.38,1,.55,1.52s.27.74.39,1.09a5.3,5.3,0,0,0,.89,1.63c.11.12.22.22.33.32a11.31,11.31,0,0,0,1.41,1l.23.15a23,23,0,0,1,2.25,1.62A3.61,3.61,0,0,1,15.4,22.77Z"/><path class="cls-3" d="M23.61.6H14.5a.74.74,0,0,0-.66,1.19l1.49,1.79L13.84,5.37a.74.74,0,0,0,.66,1.19h9.11Z"/><path class="cls-2" d="M23.61,12.85a.5.5,0,0,1-.5-.5V.6a.5.5,0,0,1,.5-.5.5.5,0,0,1,.5.5V12.35A.51.51,0,0,1,23.61,12.85Z"/><path class="cls-2" d="M1.26.6h9.11A.74.74,0,0,1,11,1.79L9.54,3.58,11,5.37a.74.74,0,0,1-.66,1.19H1.26Z"/><path class="cls-3" d="M1.26,12.85a.51.51,0,0,1-.5-.5V.6a.5.5,0,0,1,.5-.5.5.5,0,0,1,.5.5V12.35A.5.5,0,0,1,1.26,12.85Z"/></g></g></g></svg>