<svg xmlns="http://www.w3.org/2000/svg" viewBox="0 0 26 26"><defs><style>.cls-1{fill:none;}.cls-2{fill:#575756;}.cls-3{fill:#009879;}</style></defs><g id="Layer_2" data-name="Layer 2"><g id="Variations"><g id="Single_Origin" data-name="Single  Origin"><rect class="cls-1" width="26" height="26"/><path class="cls-2" d="M13,11C6.92,11,2,14.37,2,18.5c0,3.38,3.29,6.24,7.82,7.17a1,1,0,0,0,1.2-1h0a1,1,0,0,0-.82-1c-3-.62-5.28-2.17-6-4a3.22,3.22,0,0,1-.07-2.14,5.58,5.58,0,0,1,2.2-2.67A12.18,12.18,0,0,1,13,13c4.89,0,9,2.52,9,5.5a3.2,3.2,0,0,1-.11.83,2.69,2.69,0,0,1-.16.45,5.77,5.77,0,0,1-2.08,2.36,10.91,10.91,0,0,1-3.9,1.57,1,1,0,0,0-.77,1h0a1,1,0,0,0,1.2,1,12.74,12.74,0,0,0,4.59-1.87A6.56,6.56,0,0,0,24,18.51C24,14.37,19.08,11,13,11Z"/><path class="cls-2" d="M22.42,19.74l-.67.05a15.49,15.49,0,0,0-3,.54,8.81,8.81,0,0,1-2.33.37h-.26a10.35,10.35,0,0,1-3.86-1.31,9.49,9.49,0,0,0-3.75-1.25h0a8.19,8.19,0,0,0-3.11,1c-.44.21-.85.4-1.24.54a3.59,3.59,0,0,1-.86.21l-.18-2a4.5,4.5,0,0,0,1-.36l.46-.21a9.77,9.77,0,0,1,4-1.18h0a10.85,10.85,0,0,1,4.63,1.46,8.91,8.91,0,0,0,3.06,1.1,6.51,6.51,0,0,0,2-.31,24.35,24.35,0,0,1,4-.65l.13,1.57Z"/><path class="cls-3" d="M17.78,1.06H6.38a.93.93,0,0,0-.82,1.49L7.42,4.79,5.56,7a.93.93,0,0,0,.82,1.49h11.4Z"/><path class="cls-2" d="M17.79,13.66a1,1,0,0,1-1-1V1.06a1,1,0,1,1,2,0v11.6A1,1,0,0,1,17.79,13.66Z"/></g></g></g></svg>