<svg xmlns="http://www.w3.org/2000/svg" viewBox="0 0 26.11 26"><defs><style>.cls-1{fill:none;}.cls-2{fill:#575756;}.cls-3{fill:#009879;}</style></defs><g id="Layer_2" data-name="Layer 2"><g id="Variations"><g id="Speciality_Coffee" data-name="Speciality Coffee"><rect class="cls-1" x="0.05" width="26" height="26"/><polygon class="cls-2" points="10.09 0 10.9 1.63 12.69 1.89 11.39 3.15 11.7 4.94 10.09 4.1 8.49 4.94 8.79 3.15 7.5 1.89 9.29 1.63 10.09 0"/><polygon class="cls-2" points="16.27 0 17.07 1.63 18.87 1.89 17.57 3.15 17.88 4.94 16.27 4.1 14.66 4.94 14.97 3.15 13.67 1.89 15.47 1.63 16.27 0"/><polygon class="cls-2" points="22.45 0 23.25 1.63 25.04 1.89 23.75 3.15 24.05 4.94 22.45 4.1 20.84 4.94 21.15 3.15 19.85 1.89 21.64 1.63 22.45 0"/><polygon class="cls-2" points="3.66 0 4.47 1.63 6.26 1.89 4.96 3.15 5.27 4.94 3.66 4.1 2.06 4.94 2.36 3.15 1.07 1.89 2.86 1.63 3.66 0"/><path class="cls-3" d="M13.06,8.23C5.84,8.23,0,12.21,0,17.11c0,4.17,4.2,7.66,9.87,8.63a1,1,0,0,0,1.18-1h0a1,1,0,0,0-.86-1,13.13,13.13,0,0,1-5.25-2,6.36,6.36,0,0,1-2.83-3.69A4.24,4.24,0,0,1,2,17.11a4.17,4.17,0,0,1,.14-1.06c.85-3.25,5.5-5.82,10.92-5.82a14.52,14.52,0,0,1,8.1,2.25,6.7,6.7,0,0,1,2.74,3.31,4.24,4.24,0,0,1,.21,1.32,3.84,3.84,0,0,1-.07.76c-.53,2.8-3.85,5.15-8.14,5.89a1,1,0,0,0-.85,1h0a1,1,0,0,0,1.19,1,15.38,15.38,0,0,0,6.05-2.34c2.36-1.61,3.82-3.84,3.82-6.29C26.11,12.21,20.27,8.23,13.06,8.23Z"/><path class="cls-3" d="M24.71,17.66a2.24,2.24,0,0,0-.67.21c-.33.12-.71.3-1.09.48a11.41,11.41,0,0,1-4.62,1.38h0A12.67,12.67,0,0,1,12.91,18a10.71,10.71,0,0,0-3.7-1.32,10.43,10.43,0,0,0-3,.52,25,25,0,0,1-4.15.83c-.18,0-.37,0-.57.06l-.15-2,.75-.07a27,27,0,0,0,3.6-.76,11.73,11.73,0,0,1,3.55-.59,12.09,12.09,0,0,1,4.5,1.53,11.22,11.22,0,0,0,4.52,1.5h0a9.87,9.87,0,0,0,3.77-1.19,13.69,13.69,0,0,1,1.8-.75,3.75,3.75,0,0,1,.62-.12Z"/></g></g></g></svg>