<svg xmlns="http://www.w3.org/2000/svg" viewBox="0 0 24 24.19"><defs><style>.cls-1,.cls-3{fill:none;}.cls-2{fill:#009879;}.cls-3{stroke:#575756;stroke-linecap:round;stroke-miterlimit:10;stroke-width:2px;}</style></defs><g id="Layer_2" data-name="Layer 2"><g id="Variations"><g id="Safety"><rect class="cls-1" width="24" height="24"/><path class="cls-2" d="M21.38.15a10.24,10.24,0,0,1-4.55,1.07A10.23,10.23,0,0,1,12.29.15L12,0A10.15,10.15,0,0,1,7.16,1.23,10.12,10.12,0,0,1,2.32,0V4.84a24.64,24.64,0,0,0,.42,4.48,1,1,0,0,0,1.33.78h0A1,1,0,0,0,4.71,9a21.79,21.79,0,0,1-.39-4.12V2.89a12.33,12.33,0,0,0,2.84.34,12.2,12.2,0,0,0,4.84-1,12.36,12.36,0,0,0,4.83,1,12.33,12.33,0,0,0,2.84-.34v2A22.29,22.29,0,0,1,12,21.62a22.2,22.2,0,0,1-5.48-7.18,1,1,0,0,0-1.24-.53h0a1,1,0,0,0-.59,1.36A24.18,24.18,0,0,0,12,24.19,24.19,24.19,0,0,0,21.67,4.84V0Z"/><polyline class="cls-3" points="9.02 11.06 10.89 12.94 15.46 8.37"/></g></g></g></svg>