<svg xmlns="http://www.w3.org/2000/svg" viewBox="0 0 30 30"><defs><style>.cls-1{fill:none;}.cls-2{fill:#fff;}</style></defs><g id="Layer_2" data-name="Layer 2"><g id="Variations"><g id="Organisation_Sale" data-name="Organisation Sale"><rect class="cls-1" width="30" height="30"/><path class="cls-2" d="M26.62,10.31H18.11a2,2,0,0,0-1.45.58V28H16V30H26.62a2.06,2.06,0,0,0,2.07-2.07V12.38A2.06,2.06,0,0,0,26.62,10.31Zm0,17.64H18.09l0-15.59h8.51l0,0Z"/><path class="cls-2" d="M16.64,4.68H9.47v.45H7.75a3.87,3.87,0,0,1,1.37,1.6h7.52l0,0V28H16l-10.61,0V13.07H3.37V27.93A2.07,2.07,0,0,0,5.44,30H18.71V6.75A2.07,2.07,0,0,0,16.64,4.68ZM5.29,7.21l.15.07V6.73H8a3,3,0,0,0-1-.89A8.54,8.54,0,0,0,5.46,5.2l-.87-.34a2.08,2.08,0,0,0-1.2,1.6,6.19,6.19,0,0,0,1,.39ZM3.65,12H5.43V9.25A1.49,1.49,0,0,1,5,9.31a1.74,1.74,0,0,1-1.26-.37,1.31,1.31,0,0,1-.38-1V10.8l.32.1Z"/><rect class="cls-2" x="20.95" y="22.97" width="2.81" height="4.23"/><rect class="cls-2" x="20.25" y="20.15" width="1.41" height="1.41"/><rect class="cls-2" x="23.06" y="20.15" width="1.41" height="1.41"/><rect class="cls-2" x="20.25" y="17.34" width="1.41" height="1.41"/><rect class="cls-2" x="23.06" y="17.34" width="1.41" height="1.41"/><rect class="cls-2" x="20.25" y="14.53" width="1.41" height="1.41"/><rect class="cls-2" x="23.06" y="14.53" width="1.41" height="1.41"/><rect class="cls-2" x="7.52" y="20.15" width="1.41" height="1.41"/><rect class="cls-2" x="10.34" y="20.15" width="1.41" height="1.41"/><rect class="cls-2" x="7.52" y="17.34" width="1.41" height="1.41"/><rect class="cls-2" x="10.34" y="17.34" width="1.41" height="1.41"/><rect class="cls-2" x="7.52" y="14.53" width="1.41" height="1.41"/><rect class="cls-2" x="10.34" y="14.53" width="1.41" height="1.41"/><rect class="cls-2" x="13.15" y="20.15" width="1.41" height="1.41"/><rect class="cls-2" x="13.15" y="17.34" width="1.41" height="1.41"/><rect class="cls-2" x="7.52" y="11.71" width="1.41" height="1.41"/><rect class="cls-2" x="10.34" y="11.71" width="1.41" height="1.41"/><rect class="cls-2" x="13.15" y="11.71" width="1.41" height="1.41"/><path class="cls-2" d="M8.39,8.9a2.37,2.37,0,0,1-.61,1.21,1.43,1.43,0,0,1-.23.2h0V8.9Z"/><rect class="cls-2" x="10.34" y="8.9" width="1.41" height="1.41"/><rect class="cls-2" x="13.15" y="8.9" width="1.41" height="1.41"/><rect class="cls-2" x="13.15" y="14.53" width="1.41" height="1.41"/><rect class="cls-2" x="9.63" y="22.97" width="2.81" height="4.23"/><path class="cls-2" d="M8,6.73a2.65,2.65,0,0,1,.49,1.61,3.33,3.33,0,0,1,0,.56,2.37,2.37,0,0,1-.61,1.21,1.43,1.43,0,0,1-.23.2,3.48,3.48,0,0,1-1.68.7l0,1H3.65l0-1.14-.32-.1a3.37,3.37,0,0,1-1.56-1,3,3,0,0,1-.71-2H3.36a1.09,1.09,0,0,0,0,.18,1.31,1.31,0,0,0,.38,1A1.74,1.74,0,0,0,5,9.31a1.49,1.49,0,0,0,.43-.06,1,1,0,0,0,.44-.19.83.83,0,0,0,.32-.71,1,1,0,0,0-.34-.8,1.68,1.68,0,0,0-.42-.27l-.15-.07-.91-.36a6.19,6.19,0,0,1-1-.39l-.2-.09a2.83,2.83,0,0,1-1.8-2.55A2.27,2.27,0,0,1,2,2.18a3.54,3.54,0,0,1,1.67-.93l0-1.12H5.9l0,1a3.22,3.22,0,0,1,1.89,1A2.76,2.76,0,0,1,8.44,4.1H6.21a1.16,1.16,0,0,0-.35-.91,1.3,1.3,0,0,0-.94-.33,1.5,1.5,0,0,0-1,.28.88.88,0,0,0-.35.7A.9.9,0,0,0,4,4.51a2.39,2.39,0,0,0,.58.34h0l.87.34A8.54,8.54,0,0,1,7,5.84,3,3,0,0,1,8,6.73Z"/></g></g></g></svg>