<svg xmlns="http://www.w3.org/2000/svg" viewBox="0 0 26 26"><defs><style>.cls-1{fill:none;}.cls-2{fill:#1b8d7b;}.cls-3{fill:#575756;}</style></defs><g id="Layer_2" data-name="Layer 2"><g id="Variations"><g id="Instant_Coffee" data-name="Instant Coffee"><rect class="cls-1" width="26" height="26"/><path class="cls-2" d="M5.07,1.57,4.92,3.88,2.54,4.1,2.39,6.38,0,6.62,1.36,8l.81.8a1.64,1.64,0,0,0,1.1.66h.09a1.08,1.08,0,0,0,1-1.08,1.12,1.12,0,0,0,0-.24L4.21,8l.17-1.49,0-.57.68-.07,1.33-.12,3.76,3.76S8,11.73,7.94,11.72a1,1,0,0,0-.39-.08,1,1,0,0,0-.66.24L6.75,12a1,1,0,0,0,.06,1.4L8,14.57,13,9.51Z"/><path class="cls-3" d="M19.59,5.75l1.32.12.68.07,0,.57.1,1.55-3.68,3.68L15.83,9.51l3.76-3.76m1.35-4.18L13,9.51l5.05,5.06,8-7.95-2.37-.24L23.48,4.1,21.1,3.88l-.16-2.31Z"/><circle class="cls-3" cx="10.62" cy="16.14" r="1.07"/><circle class="cls-3" cx="16.49" cy="17.97" r="1.83"/><circle class="cls-3" cx="12.83" cy="19.92" r="0.66"/><circle class="cls-3" cx="9.52" cy="22.7" r="1.73"/></g></g></g></svg>