<svg xmlns="http://www.w3.org/2000/svg" viewBox="0 0 26.11 26.14"><defs><style>.cls-1{fill:none;}.cls-2{fill:#009879;}.cls-3{fill:#575756;}</style></defs><g id="Layer_2" data-name="Layer 2"><g id="Variations"><g id="Powder_Sachet" data-name="Powder Sachet"><rect class="cls-1" x="0.08" y="0.14" width="26" height="26"/><path class="cls-2" d="M17.74,2.53h0m1.4-1.43L15.79,2l2.48,2.43.87-3.36Z"/><path class="cls-2" d="M21.26,6h0m1.41-1.43-3.35.92,2.47,2.44.88-3.36Z"/><path class="cls-2" d="M24.51,9.72h0M25.92,8.3l-3.36.92L25,11.65l.88-3.35Z"/><path class="cls-2" d="M1.94,17.3h0M1.4,15.37.53,18.73l3.35-.92L1.4,15.37Z"/><path class="cls-2" d="M25.51,11.53,14.38.58a2,2,0,0,0-2.85,0L.58,11.73a2,2,0,0,0,0,2.86l4.23,4.15H7.69L2,13.14,13,2h0L24.11,13l-5.68,5.77h2.81l4.29-4.36A2,2,0,0,0,25.51,11.53Z"/><circle class="cls-3" cx="11.06" cy="25.27" r="0.87"/><circle class="cls-3" cx="14.07" cy="21.77" r="1.05"/><circle class="cls-3" cx="13.63" cy="24.4" r="0.57"/><circle class="cls-3" cx="11.06" cy="22.33" r="1.09"/></g></g></g></svg>