<svg xmlns="http://www.w3.org/2000/svg" viewBox="0 0 30 30"><defs><style>.cls-1{fill:none;}.cls-2{fill:#fff;}</style></defs><g id="Layer_2" data-name="Layer 2"><g id="Variations"><g id="Contact_us" data-name="Contact us"><rect class="cls-1" width="30" height="30"/><path class="cls-2" d="M24.65,11.71a10.63,10.63,0,0,0-2-.49v2a10.14,10.14,0,0,1,2,.6c2,.85,3.35,2.29,3.35,3.89s-1.5,3.2-3.69,4a9.6,9.6,0,0,1-2.29.57,8.24,8.24,0,0,1-1.22,2.09,12,12,0,0,0,2.58-.3c3.84-.85,6.62-3.39,6.62-6.38C30,15.08,27.82,12.78,24.65,11.71Z"/><path class="cls-2" d="M4.39,11.39A1.6,1.6,0,0,1,4,10.17H3.26V13a4.06,4.06,0,0,0,1.07.43l0,1.2h1V11.74A1.58,1.58,0,0,1,4.39,11.39Zm3.77-3H5A1.76,1.76,0,0,0,4,8.74a7.52,7.52,0,0,0,1.11.44c.42.15.74.28,1,.37a2.51,2.51,0,0,1,.6.36.88.88,0,0,1,.3.46H9.34A2.8,2.8,0,0,0,8.16,8.37Zm14.72,0H9.58a3.75,3.75,0,0,1,.76,2H22.65v8.7A8.59,8.59,0,0,1,22,22.32a8.24,8.24,0,0,1-1.22,2.09A8.69,8.69,0,0,1,5.26,19.07V15.66h-2v3.41a10.69,10.69,0,0,0,20.12,5,10.26,10.26,0,0,0,.93-2.36,10.75,10.75,0,0,0,.34-2.68V10.15A1.77,1.77,0,0,0,22.88,8.37Z"/><path class="cls-2" d="M9.34,10.37c0,.13,0,.25,0,.38a2.59,2.59,0,0,1-.71,1.87,3.45,3.45,0,0,1-2,.94l0,1.1H4.3l0-1.2A4.06,4.06,0,0,1,3.26,13a3.37,3.37,0,0,1-.91-.72,3.09,3.09,0,0,1-.75-2.14H4a1.6,1.6,0,0,0,.41,1.22,1.58,1.58,0,0,0,.87.35,3.38,3.38,0,0,0,.47,0,1.48,1.48,0,0,0,.92-.26A.92.92,0,0,0,7,10.76a1.23,1.23,0,0,0-.06-.39.88.88,0,0,0-.3-.46A2.51,2.51,0,0,0,6,9.55c-.22-.09-.54-.22-1-.37A7.52,7.52,0,0,1,4,8.74l-.14-.07A3,3,0,0,1,1.9,6a2.41,2.41,0,0,1,.68-1.74,3.75,3.75,0,0,1,1.75-1l0-1.18H6.66l0,1.1a3.38,3.38,0,0,1,2,1.09,3,3,0,0,1,.73,2H7a1.28,1.28,0,0,0-.37-1,1.41,1.41,0,0,0-1-.34,1.62,1.62,0,0,0-1,.28.89.89,0,0,0,0,1.46,2.49,2.49,0,0,0,.6.35c.24.1.55.23.94.37a8.4,8.4,0,0,1,1.57.68,3.77,3.77,0,0,1,.39.26A2.8,2.8,0,0,1,9.34,10.37Z"/><polygon class="cls-2" points="15.14 0.08 16.11 2.03 18.27 2.35 16.7 3.87 17.07 6.02 15.14 5 13.21 6.02 13.58 3.87 12.02 2.35 14.18 2.03 15.14 0.08"/><polygon class="cls-2" points="21.09 3.01 21.84 4.54 23.53 4.79 22.31 5.98 22.6 7.66 21.09 6.87 19.57 7.66 19.86 5.98 18.64 4.79 20.33 4.54 21.09 3.01"/></g></g></g></svg>