<svg xmlns="http://www.w3.org/2000/svg" viewBox="0 0 30 30"><defs><style>.cls-1{fill:none;}.cls-2{fill:#fff;}</style></defs><g id="Layer_2" data-name="Layer 2"><g id="Variations"><g id="Contact_us" data-name="Contact us"><rect class="cls-1" width="30" height="30"/><path class="cls-2" d="M5.3,11.89a10.22,10.22,0,0,0,0,5.45V19.1H2a2,2,0,0,1-2-2V10.69a2,2,0,0,1,2-2H5.3Z"/><path class="cls-2" d="M30,10.68V17.1a2,2,0,0,1-2,2H25.11V17.84a10.21,10.21,0,0,0,.52-3.23,10.11,10.11,0,0,0-.52-3.22V8.68H28A2,2,0,0,1,30,10.68Z"/><rect class="cls-2" x="11.44" y="23.59" width="6" height="3.86" rx="1.29"/><path class="cls-2" d="M14.77,8.68a6,6,0,0,0,0,12,6,6,0,0,0,0-12Zm3,5.25a.75.75,0,1,1-.75.75A.75.75,0,0,1,17.78,13.93Zm-6,1.5a.75.75,0,1,1,.75-.75A.75.75,0,0,1,11.78,15.43Zm3,0h0a.75.75,0,1,1,0-1.5.76.76,0,0,1,.75.75.69.69,0,0,1-.2.5A.75.75,0,0,1,14.77,15.43Z"/><path class="cls-2" d="M20.77,20.68h-6V15.43a.75.75,0,0,0,.5-.25Z"/><path class="cls-2" d="M26.11,8.68A12.35,12.35,0,0,0,3.77,19.1H6a9.76,9.76,0,0,1-.65-1.76,10.35,10.35,0,0,1,19.81-5.95,10.11,10.11,0,0,1,.52,3.22,10.21,10.21,0,0,1-.52,3.23,10,10,0,0,1-.5,1.26h2.18a12.4,12.4,0,0,0,.84-4.49A12.24,12.24,0,0,0,26.11,8.68Z"/><path class="cls-2" d="M14.59,24.67v1A11.06,11.06,0,0,1,4.83,19.1H5.94A10.05,10.05,0,0,0,14.59,24.67Z"/></g></g></g></svg>