<svg xmlns="http://www.w3.org/2000/svg" viewBox="0 0 30 30"><defs><style>.cls-1{fill:none;}.cls-2{fill:#fff;}</style></defs><g id="Layer_2" data-name="Layer 2"><g id="Variations"><g id="Representative"><rect class="cls-1" width="30" height="30"/><path class="cls-2" d="M14.64,9.86A5.14,5.14,0,1,1,9.5,15a5.15,5.15,0,0,1,5.14-5.14m0-2A7.14,7.14,0,1,0,21.79,15a7.14,7.14,0,0,0-7.15-7.14Z"/><path class="cls-2" d="M9.88,11.4a1,1,0,0,1-.72-.31L5.52,7.31a.43.43,0,0,0-.32-.14h-2a1,1,0,1,1,0-2h2A2.48,2.48,0,0,1,7,5.92L10.6,9.71a1,1,0,0,1,0,1.41A1,1,0,0,1,9.88,11.4Z"/><path class="cls-2" d="M19.27,11.54a1,1,0,0,1-.72-1.69l3.78-3.93a2.44,2.44,0,0,1,1.75-.75h2a1,1,0,0,1,0,2h-2a.41.41,0,0,0-.31.14L20,11.23A1,1,0,0,1,19.27,11.54Z"/><path class="cls-2" d="M5.2,25h-2a1,1,0,0,1,0-2h2a.43.43,0,0,0,.32-.14l3.75-3.9a1,1,0,1,1,1.44,1.38L7,24.2A2.48,2.48,0,0,1,5.2,25Z"/><path class="cls-2" d="M26.07,25h-2a2.48,2.48,0,0,1-1.76-.75l-3.77-3.93a1,1,0,0,1,0-1.41,1,1,0,0,1,1.42,0l3.77,3.92a.41.41,0,0,0,.31.14h2a1,1,0,0,1,0,2Z"/><circle class="cls-2" cx="3.21" cy="6.17" r="2.86"/><circle class="cls-2" cx="26.79" cy="6.17" r="2.86"/><circle class="cls-2" cx="3.21" cy="23.95" r="2.86"/><circle class="cls-2" cx="26.79" cy="23.95" r="2.86"/><line class="cls-2" x1="15.03" y1="8.82" x2="15.03" y2="2.14"/><path class="cls-2" d="M15,9.82a1,1,0,0,1-1-1V2.14a1,1,0,0,1,2,0V8.82A1,1,0,0,1,15,9.82Z"/><circle class="cls-2" cx="15.03" cy="2.86" r="2.86"/><line class="cls-2" x1="15.03" y1="21.3" x2="15.03" y2="27.86"/><path class="cls-2" d="M15,28.86a1,1,0,0,1-1-1V21.3a1,1,0,0,1,2,0v6.56A1,1,0,0,1,15,28.86Z"/><circle class="cls-2" cx="15.03" cy="27.14" r="2.86"/></g></g></g></svg>