<svg xmlns="http://www.w3.org/2000/svg" viewBox="0 0 20 20.11"><defs><style>.cls-1{fill:none;}.cls-2{fill:#fff;}</style></defs><g id="Layer_2" data-name="Layer 2"><g id="Variations"><g id="Inventory"><rect class="cls-1" width="20" height="20"/><path class="cls-2" d="M16.13,17.44a7.79,7.79,0,0,1-5.24,2.46h-.4a3.16,3.16,0,0,0,1.21-.75,3.2,3.2,0,0,0,.87-1.64A6.76,6.76,0,0,0,14.71,16a6.66,6.66,0,0,0,1.68-2.64,3.58,3.58,0,0,1-.26.29,6.83,6.83,0,0,1-2.73,1.45,6.94,6.94,0,0,0-.84.31,7.38,7.38,0,0,0-.7-1.89l.89-.32a5.13,5.13,0,0,0,2-1,4.54,4.54,0,0,0,.79-1.57,2,2,0,0,0-.47,0,5.88,5.88,0,0,0-3.81,1.87,8.68,8.68,0,0,0-1-1.2A2.8,2.8,0,0,0,9.89,11,7.69,7.69,0,0,1,15,8.64a3.57,3.57,0,0,1,2.59,1C19.36,11.36,18.7,14.87,16.13,17.44Z"/><path class="cls-2" d="M12.56,15.43a7.38,7.38,0,0,0-.7-1.89,7.58,7.58,0,0,0-.64-1,8.68,8.68,0,0,0-1-1.2A2.8,2.8,0,0,0,9.89,11,7.56,7.56,0,0,0,5,8.85a3.56,3.56,0,0,0-2.58,1c-1.75,1.74-1.08,5.25,1.49,7.82a7.77,7.77,0,0,0,5.24,2.46,4.06,4.06,0,0,0,1.37-.22,3.16,3.16,0,0,0,1.21-.75,3.2,3.2,0,0,0,.87-1.64A4.82,4.82,0,0,0,12.56,15.43Zm-5,2.34a7,7,0,0,1-2.28-1.54,5.3,5.3,0,0,1-1.83-4.3,4.52,4.52,0,0,1,1.58.8,5.44,5.44,0,0,1,1,2A6.46,6.46,0,0,0,7.16,17a3.5,3.5,0,0,0,.28.27A5.88,5.88,0,0,0,8.51,18l.05,0A4.26,4.26,0,0,1,7.57,17.77ZM10.63,17c-.44-.31-.8-.52-1.11-.7l-.19-.11-.15-.09a3.38,3.38,0,0,1-.55-.45A5.35,5.35,0,0,1,7.89,14l0-.1a6.76,6.76,0,0,0-1.42-2.63l-.26-.24A6.5,6.5,0,0,1,8.6,12.55a1.71,1.71,0,0,1,.2.18A7.2,7.2,0,0,1,9.94,14.2a2.64,2.64,0,0,1,.23.44A3.87,3.87,0,0,1,10.63,17Z"/><path class="cls-2" d="M6.83,1.7C9,3.33,8.06,4.94,7,6.77a5.12,5.12,0,0,1-.59,1.81c-1.72-2.1-1-3.12.18-5.12.21-.49,0-1.21.29-1.76Z"/><path class="cls-2" d="M10.76,0C13,1.63,12,3.24,10.88,5.07a5.12,5.12,0,0,1-.59,1.81c-1.72-2.1-1-3.12.18-5.12.21-.49,0-1.21.29-1.76Z"/><path class="cls-2" d="M14,1.37c2.2,1.63,1.23,3.24.12,5.07a5.12,5.12,0,0,1-.59,1.81c-1.72-2.1-1-3.12.18-5.12.21-.49,0-1.21.29-1.76Z"/></g></g></g></svg>