<svg xmlns="http://www.w3.org/2000/svg" viewBox="0 0 20 20"><defs><style>.cls-1{fill:none;}.cls-2{fill:#fff;}</style></defs><g id="Layer_2" data-name="Layer 2"><g id="Variations"><g id="Laboratory"><rect class="cls-1" width="20" height="20"/><path class="cls-2" d="M13.84,0H6.16a1,1,0,0,0,0,2h7.68a1,1,0,0,0,0-2Z"/><path class="cls-2" d="M18.89,18.36l-5.26-11V2H6.37V7.33L5.25,9.69A1,1,0,0,0,5.71,11h0a1,1,0,0,0,1.35-.47L8.18,8.19l.19-.41V4h3.26V7.79l.2.41L16.5,18H3.5l1-2A1,1,0,0,0,4,14.64H4a1,1,0,0,0-1.35.46L1.11,18.36A1.17,1.17,0,0,0,2.25,20h15.5A1.17,1.17,0,0,0,18.89,18.36Z"/><path class="cls-2" d="M12.72,14a2.72,2.72,0,0,1-5.44,0C7.28,12.49,10,8.84,10,8.84S12.72,12.49,12.72,14Z"/></g></g></g></svg>