<svg xmlns="http://www.w3.org/2000/svg" viewBox="0 0 20 20"><defs><style>.cls-1{fill:none;}.cls-2{fill:#fff;}</style></defs><g id="Layer_2" data-name="Layer 2"><g id="Variations"><g id="Inventory"><rect class="cls-1" width="20" height="20"/><path class="cls-2" d="M8,1H8a1.22,1.22,0,0,1,.84.28c.69.58.58,2.24-.65,3.68A3.85,3.85,0,0,1,5.54,6.43a1.27,1.27,0,0,1-.85-.27,1.63,1.63,0,0,1-.41-1.41A4.37,4.37,0,0,1,5.34,2.48,3.89,3.89,0,0,1,8,1M8,0A4.8,4.8,0,0,0,4.59,1.82C3.07,3.59,2.82,5.87,4,6.91a2.21,2.21,0,0,0,1.5.52A4.84,4.84,0,0,0,9,5.61c1.52-1.77,1.76-4.05.55-5.09A2.27,2.27,0,0,0,8,0Z"/><path class="cls-2" d="M4.39,7.1l-.55-.84C5,5.48,6.29,4.33,6.29,3.84c0-1.37.6-2.09,2.56-3.08l.45.89c-1.92,1-2,1.44-2,2.19C7.29,5.1,5.07,6.65,4.39,7.1Z"/><path class="cls-2" d="M11.8,1.09h0a4,4,0,0,1,2.65,1.28,4.36,4.36,0,0,1,1.22,2.19A1.63,1.63,0,0,1,15.36,6a1.36,1.36,0,0,1-1,.34,4,4,0,0,1-2.64-1.28,4.38,4.38,0,0,1-1.23-2.19,1.66,1.66,0,0,1,.31-1.44,1.38,1.38,0,0,1,1-.34m0-1a2.37,2.37,0,0,0-1.68.63C9,1.85,9.4,4.11,11,5.76a4.93,4.93,0,0,0,3.35,1.58,2.35,2.35,0,0,0,1.68-.63c1.14-1.13.73-3.39-.91-5A5,5,0,0,0,11.8.09Z"/><path class="cls-2" d="M15.84,6.61s-1.54-2.8-2.62-2.89-1.63-.48-2.45-2.48"/><path class="cls-2" d="M15.4,6.85c-.68-1.24-1.73-2.59-2.22-2.63-1.37-.1-2-.76-2.87-2.79l.93-.38c.81,2,1.27,2.12,2,2.18,1.25.09,2.63,2.43,3,3.14Z"/><path class="cls-2" d="M17,15.14s1.69-5.26.81-9.11H2.21A10.33,10.33,0,0,0,2,9.51a.09.09,0,0,0,0,.05.28.28,0,0,0,0,.09.37.37,0,0,0,0,.11,1,1,0,0,0,1,.8l.2,0A1,1,0,0,0,4,9.6v0a1.23,1.23,0,0,0,0-.2H4A11.73,11.73,0,0,1,3.93,8H16.09a22,22,0,0,1-.95,6.5l-.07.21,0,.22a3.88,3.88,0,0,0,.7,2.59.69.69,0,0,1-.54.45H4.86a.69.69,0,0,1-.55-.47,3.83,3.83,0,0,0,.65-2v-.07a1,1,0,0,0-1-1,.41.41,0,0,0-.16,0,.15.15,0,0,0-.09,0,1,1,0,0,0-.74.85.37.37,0,0,0,0,.11H3a1.69,1.69,0,0,1-.32,1,1.88,1.88,0,0,0-.25,1.63A2.67,2.67,0,0,0,4.86,20H15.21a2.69,2.69,0,0,0,2.47-1.9,1.86,1.86,0,0,0-.28-1.68A1.87,1.87,0,0,1,17,15.14Z"/><rect class="cls-2" x="1.27" y="4.97" width="17.46" height="4.24" rx="1.02"/></g></g></g></svg>