<svg xmlns="http://www.w3.org/2000/svg" viewBox="0 0 20 20"><defs><style>.cls-1{fill:#fff;}.cls-2{fill:none;}</style></defs><g id="Layer_2" data-name="Layer 2"><g id="Variations"><g id="R_D" data-name="R&amp;D"><path class="cls-1" d="M15.76.84A5.69,5.69,0,0,0,9.24,9.55,1,1,0,0,0,11,9.2l0-.11a.9.9,0,0,0-.15-.76A3.64,3.64,0,0,1,10.36,5,3.71,3.71,0,0,1,13.84,2.5a3.77,3.77,0,0,1,1.24.22,3.69,3.69,0,0,1,.27,6.84,1,1,0,0,0-.53.66h0a1,1,0,0,0,1.34,1.17A5.69,5.69,0,0,0,15.76.84Z"/><path class="cls-1" d="M18.67,17.32a1,1,0,0,1-.91-.57l-.88-1.88A1,1,0,0,1,18.69,14l.88,1.88a1,1,0,0,1-.47,1.33A1,1,0,0,1,18.67,17.32Z"/><path class="cls-1" d="M10.53,19.5a1,1,0,0,1-.82-.42L6.84,15l-.52,3.41a1,1,0,0,1-.77.82,1,1,0,0,1-1-.42L2.88,16.4l-.59,2a1,1,0,0,1-1.92-.57l1.2-4a1,1,0,0,1,1.79-.27l1.37,2.06.51-3.31A1,1,0,0,1,6,11.44a1,1,0,0,1,1,.4l3.05,4.32L12.56,6.7a1,1,0,0,1,1.93.51l-3,11.54a1,1,0,0,1-.79.74Z"/><polygon class="cls-1" points="10.94 6.68 13.84 5.75 15.92 7.97 15.92 7.99 10.93 6.69 10.94 6.68"/><rect class="cls-2" width="20" height="20"/></g></g></g></svg>