<svg xmlns="http://www.w3.org/2000/svg" viewBox="0 0 20 20"><defs><style>.cls-1{fill:none;}.cls-2{fill:#fff;}</style></defs><g id="Layer_2" data-name="Layer 2"><g id="Variations"><g id="Factory"><rect class="cls-1" width="20" height="20"/><circle class="cls-2" cx="10" cy="6.74" r="1.8"/><path class="cls-2" d="M18.57,15.19a2.8,2.8,0,0,0-2-.83h-13A2.94,2.94,0,0,0,.61,17a2.83,2.83,0,0,0,2.82,3H7a1,1,0,0,0,1-1H8a1,1,0,0,0-1-1H3.43a.82.82,0,1,1,0-1.64H16.58a.82.82,0,0,1,0,1.64H13a1,1,0,0,0-1,1h0a1,1,0,0,0,1,1h3.44a2.91,2.91,0,0,0,2.94-2.61A2.84,2.84,0,0,0,18.57,15.19Z"/><circle class="cls-2" cx="9.98" cy="17.18" r="0.53"/><circle class="cls-2" cx="13.76" cy="17.18" r="0.53"/><circle class="cls-2" cx="6.24" cy="17.18" r="0.53"/><path class="cls-2" d="M10,3.22A3.53,3.53,0,1,1,6.47,6.74,3.53,3.53,0,0,1,10,3.22m0-2a5.53,5.53,0,1,0,5.53,5.52A5.53,5.53,0,0,0,10,1.22Z"/><path class="cls-2" d="M8.26,9.82,6.75,11.33a1,1,0,0,1-.71.3,1,1,0,0,1-.7-.3,1,1,0,0,1,0-1.41L6.88,8.38A3.67,3.67,0,0,0,8.26,9.82Z"/><path class="cls-2" d="M14.67,3.41,13.08,5a3.54,3.54,0,0,0-1.44-1.38L13.26,2a1,1,0,0,1,1.41,0A1,1,0,0,1,14.67,3.41Z"/><path class="cls-2" d="M6.65,5.66a3.49,3.49,0,0,0-.17,1.08,3.1,3.1,0,0,0,.13.92H4.4a1,1,0,0,1,0-2Z"/><path class="cls-2" d="M16.61,6.66a1,1,0,0,1-1,1H13.4a3.1,3.1,0,0,0,.13-.92,3.49,3.49,0,0,0-.17-1.08h2.25A1,1,0,0,1,16.61,6.66Z"/><path class="cls-2" d="M6.75,2,8.37,3.62A3.48,3.48,0,0,0,6.94,5l-1.6-1.6A1,1,0,0,1,5.34,2,1,1,0,0,1,6.75,2Z"/><path class="cls-2" d="M14.67,11.33a1,1,0,0,1-1.41,0L11.75,9.82a3.67,3.67,0,0,0,1.38-1.44l1.54,1.54A1,1,0,0,1,14.67,11.33Z"/><path class="cls-2" d="M11,1.06V3.37a3.27,3.27,0,0,0-1-.15,3.32,3.32,0,0,0-1,.15V1.06a1,1,0,0,1,2,0Z"/><path class="cls-2" d="M10,10.27a3.27,3.27,0,0,0,1-.15v2.15a1,1,0,0,1-2,0V10.12A3.32,3.32,0,0,0,10,10.27Z"/></g></g></g></svg>