<svg xmlns="http://www.w3.org/2000/svg" viewBox="0 0 20 20"><defs><style>.cls-1{fill:none;}.cls-2{fill:#fff;}</style></defs><g id="Layer_2" data-name="Layer 2"><g id="Variations"><g id="Factory"><rect class="cls-1" width="20" height="20"/><path class="cls-2" d="M15.31,1.62c-1,2-2.32,4.41-4.59,8a37.84,37.84,0,0,0,4.68,8.67,10.12,10.12,0,0,0-.09-16.65Z"/><path class="cls-2" d="M9.54,11.35a54,54,0,0,1-5.21,6.73A9.48,9.48,0,0,0,10,20,9.39,9.39,0,0,0,14.1,19,32.89,32.89,0,0,1,9.54,11.35Z"/><path class="cls-2" d="M3.42,17.32A47.41,47.41,0,0,0,9,10c-.06-.18-.18-.5-.33-.91C8.14,7.56,7.15,4.79,6.8,3.55l-.15-.7,0-.06c.15-.43.68-.54,1.09-.51s.73.17.79.47c.32,1.12,1.18,4,1.65,5.33,1.83-2.83,3-5,4.09-7.06A9.52,9.52,0,0,0,10,0,9.85,9.85,0,0,0,.28,10,10.07,10.07,0,0,0,3.42,17.32Z"/></g></g></g></svg>